<?xml version="1.0" standalone="no"?>
<!DOCTYPE svg PUBLIC "-//W3C//DTD SVG 20010904//EN"
 "http://www.w3.org/TR/2001/REC-SVG-20010904/DTD/svg10.dtd">
<svg version="1.0" xmlns="http://www.w3.org/2000/svg"
 width="1500.000000pt" height="1500.000000pt" viewBox="0 0 1500.000000 1500.000000"
 preserveAspectRatio="xMidYMid meet">
<metadata>
Created by potrace 1.14, written by Peter Selinger 2001-2017
</metadata>
<g transform="translate(0.000000,1500.000000) scale(0.100000,-0.100000)"
fill="#000000" stroke="none">
<path d="M7540 13930 c0 -5 -3 -9 -7 -9 -20 3 -33 -2 -33 -12 0 -8 4 -8 13 -2
6 6 20 9 29 8 11 -2 15 2 11 11 -6 16 -13 18 -13 4z"/>
<path d="M7254 13903 c4 -16 3 -23 -1 -17 -12 15 -62 11 -74 -6 -9 -13 -10
-13 -8 0 3 29 -1 41 -11 35 -6 -4 -8 -11 -5 -16 4 -5 1 -9 -5 -9 -6 0 -8 -6
-4 -12 4 -8 3 -9 -2 -5 -5 5 -9 16 -9 24 0 9 -7 18 -15 20 -12 4 -13 3 -1 -5
10 -8 6 -11 -18 -17 -17 -3 -31 -12 -31 -18 0 -7 -5 -4 -11 6 -6 9 -15 15 -20
11 -6 -3 -5 -12 3 -22 12 -15 11 -16 -4 -3 -10 7 -16 17 -13 20 2 4 -3 8 -11
8 -8 0 -13 -5 -11 -12 3 -6 -5 -11 -18 -11 -13 0 -22 3 -19 7 7 11 -19 17 -41
9 -11 -4 -26 -3 -33 3 -9 7 -11 6 -6 -7 3 -9 2 -16 -4 -16 -6 0 -12 6 -15 13
-3 9 -8 9 -18 -2 -12 -12 -12 -13 1 -6 12 6 13 5 3 -5 -10 -11 -15 -11 -29 1
-16 12 -17 12 -11 -5 6 -16 5 -17 -8 -6 -8 7 -12 17 -8 23 3 6 1 7 -5 3 -6 -4
-9 -13 -6 -21 4 -9 -1 -12 -13 -11 -10 2 -27 -1 -37 -6 -14 -8 -21 -6 -28 6
-5 9 -16 16 -24 16 -14 0 -14 -2 0 -16 20 -19 20 -21 1 -21 -8 0 -12 4 -9 9 3
4 -2 8 -11 8 -9 0 -14 4 -11 8 8 13 -32 8 -45 -5 -6 -6 -18 -9 -25 -6 -8 3
-17 -2 -20 -11 -5 -13 -10 -14 -27 -4 -19 10 -20 9 -10 -4 10 -12 10 -15 -2
-15 -8 0 -15 4 -15 8 0 4 -7 10 -16 13 -15 6 -15 4 -3 -10 13 -16 12 -16 -10
-5 -18 10 -22 10 -16 1 5 -8 3 -11 -6 -8 -8 3 -13 12 -11 19 3 11 1 11 -9 2
-10 -10 -9 -16 2 -30 11 -14 9 -14 -10 2 l-24 20 7 -25 c4 -14 4 -20 -1 -15
-4 6 -18 12 -31 12 -21 2 -22 0 -10 -15 11 -15 11 -16 -4 -4 -13 10 -17 10
-22 0 -3 -7 -3 -3 0 10 3 12 1 22 -5 22 -6 0 -11 -7 -11 -15 0 -8 -7 -15 -15
-15 -9 0 -12 6 -8 17 5 11 -1 9 -16 -6 -15 -15 -26 -19 -30 -13 -4 6 -16 10
-28 9 -12 0 -20 -5 -17 -9 3 -4 12 -5 22 -2 13 4 14 3 4 -4 -17 -12 -64 -3
-55 11 3 6 1 7 -6 3 -6 -4 -9 -12 -6 -17 4 -5 1 -17 -5 -26 -11 -16 -11 -16
-6 -1 3 10 1 20 -4 23 -6 4 -10 -1 -10 -9 0 -9 -5 -16 -11 -16 -5 0 -8 4 -4 9
10 17 -12 21 -40 7 -14 -8 -26 -17 -25 -20 1 -4 0 -10 -3 -14 -2 -4 -2 -1 -1
6 5 18 -16 15 -23 -4 -5 -14 -8 -12 -20 7 -13 24 -13 23 -7 -6 6 -29 6 -29 -9
-10 -15 18 -16 18 -17 3 0 -10 -3 -18 -7 -19 -62 -7 -76 -7 -63 1 8 5 17 7 20
5 4 -2 7 2 7 9 0 10 -6 10 -28 -3 -15 -8 -25 -19 -23 -23 3 -4 -2 -5 -10 -2
-9 3 -16 2 -16 -4 0 -6 6 -13 13 -15 9 -4 9 -6 -1 -6 -7 -1 -15 6 -18 14 -7
17 -34 21 -34 4 0 -5 5 -7 10 -4 6 3 10 1 10 -5 0 -7 -7 -9 -16 -6 -12 5 -15
2 -10 -9 3 -10 2 -13 -5 -10 -6 4 -8 13 -5 21 3 7 0 16 -6 20 -7 4 -8 3 -4 -4
10 -16 -6 -15 -24 1 -8 6 -6 1 5 -13 l20 -24 -30 18 -30 19 25 -28 25 -28 -27
18 c-27 17 -28 17 -29 -1 0 -11 -3 -14 -6 -6 -2 6 -9 12 -14 12 -6 0 -8 -4 -4
-9 3 -5 0 -13 -6 -17 -7 -4 -9 -3 -5 4 3 6 2 13 -4 17 -5 3 -10 0 -10 -8 0 -8
-7 -17 -15 -21 -8 -3 -15 -1 -15 4 0 6 -8 10 -17 10 -10 0 -14 -4 -8 -8 6 -4
11 -14 13 -22 3 -12 0 -12 -15 1 -20 18 -42 15 -61 -9 -12 -16 -46 -27 -37
-12 3 4 -4 6 -15 3 -11 -3 -20 -13 -21 -22 0 -12 -2 -12 -8 3 -7 19 -8 18 -14
-5 -7 -23 -8 -23 -21 -6 -9 12 -16 14 -21 7 -3 -5 -10 -8 -15 -5 -5 3 -12 0
-16 -6 -4 -8 -3 -9 4 -5 7 4 12 2 12 -3 0 -6 -7 -11 -16 -11 -9 0 -12 -5 -8
-12 4 -7 3 -8 -4 -4 -7 4 -12 1 -12 -6 0 -9 -3 -9 -8 -2 -9 13 -38 24 -46 17
-3 -3 0 -15 6 -27 10 -19 10 -20 -6 -6 -20 15 -49 23 -41 10 3 -4 -3 -14 -12
-21 -9 -8 -14 -9 -10 -3 4 7 0 15 -9 18 -9 3 -12 2 -9 -5 4 -5 1 -16 -5 -24
-15 -18 -65 -21 -54 -3 4 7 3 8 -4 4 -7 -4 -12 -14 -12 -22 0 -8 -5 -12 -10
-9 -6 4 -7 12 -3 18 5 8 2 8 -9 0 -8 -7 -19 -9 -23 -5 -5 4 -5 1 -1 -6 4 -7
12 -9 18 -6 7 4 8 2 4 -4 -4 -6 -14 -8 -23 -5 -13 5 -15 2 -10 -12 6 -15 5
-16 -8 -5 -12 10 -15 10 -15 0 0 -10 -3 -10 -15 0 -9 7 -18 10 -22 6 -3 -3 -1
-6 6 -6 7 0 10 -4 6 -9 -3 -6 -14 -8 -25 -6 -12 2 -18 0 -15 -6 4 -5 11 -7 16
-4 5 4 9 2 9 -3 0 -5 -11 -9 -25 -9 -16 0 -22 4 -18 11 4 6 -1 5 -10 -2 -9 -8
-22 -10 -28 -6 -8 5 -9 3 -5 -5 5 -7 15 -10 23 -7 8 4 11 1 7 -5 -3 -6 -15 -8
-26 -6 -13 4 -18 1 -15 -8 4 -9 -5 -13 -33 -11 -34 1 -37 -1 -35 -22 1 -12 0
-20 -3 -17 -3 2 -12 -1 -21 -8 -14 -11 -14 -10 -2 6 7 9 9 17 4 17 -14 0 -53
-39 -53 -52 0 -7 -7 -3 -16 8 -8 10 -13 13 -9 6 9 -17 -25 -28 -36 -11 -7 11
-9 11 -9 1 0 -7 -5 -10 -12 -6 -6 4 -8 3 -4 -4 3 -6 2 -13 -4 -17 -5 -3 -10 0
-10 7 0 8 -5 6 -11 -5 -6 -9 -14 -15 -20 -12 -5 4 -9 1 -9 -4 0 -14 13 -14 27
0 8 8 13 7 18 -2 5 -7 4 -10 -3 -5 -6 3 -17 -3 -25 -14 -13 -19 -15 -19 -21
-4 -5 13 -9 14 -21 4 -8 -7 -13 -16 -10 -20 2 -4 -7 -6 -21 -4 -20 2 -28 -3
-32 -18 -5 -20 -6 -20 -19 -3 -7 11 -13 15 -14 9 -1 -18 -8 -46 -11 -49 -2 -2
-10 0 -18 5 -10 7 -11 10 -2 10 6 0 12 5 12 11 0 8 -5 8 -15 -1 -10 -9 -12
-16 -6 -24 8 -9 2 -12 -19 -10 -17 1 -27 -2 -24 -7 3 -5 10 -6 16 -3 7 4 8 2
4 -4 -4 -6 -14 -8 -23 -5 -10 4 -14 2 -10 -4 4 -6 0 -14 -9 -17 -8 -3 -13 -2
-10 2 3 5 -1 9 -9 9 -8 0 -11 -5 -8 -10 4 -6 -3 -8 -16 -4 -18 4 -20 3 -11 -8
6 -8 17 -12 25 -9 7 3 16 1 20 -5 3 -6 0 -9 -8 -5 -8 3 -18 1 -21 -5 -4 -6
-13 -8 -21 -5 -8 4 -12 11 -8 17 4 6 1 7 -6 3 -7 -5 -10 -15 -6 -25 5 -13 4
-14 -6 -3 -18 17 -34 15 -19 -3 7 -9 10 -18 6 -22 -3 -3 -6 -1 -6 5 0 7 -5 12
-11 12 -5 0 -8 -4 -5 -8 2 -4 0 -14 -6 -22 -8 -12 -9 -12 -4 3 3 9 1 17 -4 17
-6 0 -10 -4 -10 -9 0 -4 -11 -7 -25 -6 -14 2 -23 -1 -19 -6 5 -8 -10 -13 -30
-10 -5 1 -1 -11 9 -26 10 -15 12 -23 6 -17 -14 13 -61 7 -61 -8 0 -5 6 -6 13
-2 7 4 9 3 4 -2 -9 -9 -13 -10 -43 -13 -9 -1 -12 -6 -8 -13 4 -7 -3 -4 -16 7
-13 11 -20 15 -17 9 4 -7 0 -18 -9 -25 -14 -12 -14 -14 0 -25 15 -11 15 -12 1
-18 -11 -4 -14 -2 -9 6 5 7 2 9 -9 5 -12 -4 -15 -1 -11 11 2 9 -2 4 -10 -13
-16 -33 -27 -36 -37 -8 -7 16 -8 16 -8 1 -1 -9 5 -21 12 -25 10 -6 9 -12 -7
-27 -16 -16 -18 -17 -13 -3 4 12 1 17 -9 17 -11 0 -14 -5 -10 -16 5 -13 3 -14
-6 -6 -17 14 -48 -8 -48 -34 0 -16 -2 -17 -10 -4 -5 8 -10 12 -11 8 -1 -5 -2
-11 -3 -15 -4 -24 -18 -34 -32 -22 -14 11 -15 10 -18 -13 0 -6 -7 -13 -15 -16
-9 -3 -11 0 -5 9 7 12 5 12 -9 0 -18 -15 -23 -26 -7 -16 6 3 7 -1 4 -10 -5
-12 -9 -13 -21 -3 -11 9 -16 9 -24 -3 -15 -23 -10 -34 6 -13 8 10 15 14 15 8
0 -6 -9 -19 -19 -28 -14 -13 -21 -14 -27 -5 -5 8 -3 10 6 4 9 -5 11 -4 6 4 -6
9 -11 9 -22 0 -17 -14 -19 -23 -3 -13 8 5 8 1 0 -14 -7 -13 -18 -19 -31 -17
-13 3 -18 0 -14 -7 5 -8 1 -9 -10 -5 -10 4 -15 3 -11 -3 3 -6 1 -10 -5 -10 -7
0 -9 -7 -6 -16 6 -15 4 -15 -11 -3 -11 9 -14 10 -9 2 7 -13 -4 -17 -34 -13
-10 1 -9 -3 5 -14 19 -14 19 -15 -10 -10 -20 3 -25 1 -16 -5 11 -7 10 -13 -4
-35 -19 -29 -27 -34 -19 -11 4 10 0 15 -10 15 -11 0 -15 -7 -13 -22 2 -13 2
-17 0 -10 -3 7 -9 10 -14 6 -5 -3 -6 -10 -3 -16 4 -5 -4 -4 -17 3 -22 11 -23
11 -10 -4 9 -12 10 -17 2 -17 -7 0 -9 -5 -5 -12 4 -7 -2 -5 -13 5 -16 14 -20
14 -20 2 0 -8 4 -12 9 -9 4 3 8 0 8 -7 0 -7 -8 -9 -21 -6 -17 5 -18 3 -7 -11
11 -14 10 -15 -6 -9 -16 6 -17 5 -6 -8 7 -9 10 -18 6 -22 -3 -3 -6 -2 -6 4 0
12 -29 13 -31 1 -1 -4 -2 -14 -3 -20 -1 -7 -8 -12 -15 -10 -9 2 -11 -3 -7 -14
5 -14 4 -15 -9 -4 -12 10 -15 10 -15 -4 0 -10 -4 -14 -10 -11 -5 3 -10 1 -10
-4 0 -6 -6 -10 -12 -8 -7 1 -12 -6 -10 -15 2 -11 -3 -18 -13 -18 -10 0 -13 -5
-9 -12 4 -7 3 -8 -4 -4 -7 4 -12 2 -12 -3 0 -6 -3 -10 -7 -9 -5 2 -19 -5 -33
-15 -27 -19 -20 -23 12 -6 15 8 23 8 32 -2 8 -9 8 -10 -1 -5 -14 8 -63 -13
-63 -27 0 -5 -9 -7 -19 -4 -15 4 -19 0 -16 -15 3 -13 0 -18 -9 -15 -7 3 -18
-4 -25 -15 -11 -17 -10 -22 1 -29 10 -7 10 -9 0 -9 -7 0 -15 7 -19 15 -4 13
-8 12 -21 -6 -11 -16 -12 -23 -2 -29 9 -5 8 -9 -4 -13 -8 -3 -18 -1 -22 5 -5
7 -2 8 6 3 9 -6 11 -4 6 4 -10 16 -21 5 -21 -21 0 -12 -7 -23 -15 -25 -13 -4
-13 -3 0 7 13 10 13 11 0 7 -8 -2 -16 -14 -18 -26 -3 -18 -6 -20 -18 -10 -12
10 -13 9 -8 -5 3 -9 11 -16 17 -16 6 0 7 -3 4 -7 -4 -3 -17 2 -28 13 -22 19
-22 19 -10 -3 10 -19 8 -22 -12 -25 -18 -2 -22 -9 -20 -33 2 -25 0 -27 -8 -12
-11 18 -29 14 -29 -6 0 -7 4 -6 11 3 9 12 10 12 5 -3 -3 -10 -6 -21 -6 -24 0
-3 -6 0 -13 6 -11 8 -18 6 -31 -8 -15 -16 -15 -19 -2 -24 10 -4 13 -1 10 7 -3
8 -1 17 5 21 7 4 10 -2 7 -17 -3 -19 -9 -23 -37 -22 -19 1 -26 0 -16 -3 23 -6
22 -20 -4 -33 -13 -7 -18 -17 -15 -27 5 -13 4 -14 -9 -3 -8 7 -15 11 -16 9 0
-2 -2 -15 -3 -28 -2 -14 -8 -27 -14 -29 -6 -2 -9 -11 -6 -20 5 -14 4 -14 -6 1
-16 25 -44 4 -30 -22 6 -13 5 -18 -5 -18 -8 0 -11 5 -7 11 3 6 -5 4 -18 -5
-14 -9 -26 -23 -26 -30 -1 -8 -2 -18 -3 -23 0 -5 -9 -2 -18 5 -16 13 -17 12
-4 -4 10 -13 17 -14 27 -6 7 6 11 16 8 24 -7 16 12 29 21 15 4 -6 11 -7 17 -4
7 4 8 2 4 -4 -4 -6 -14 -8 -23 -5 -10 4 -14 2 -9 -5 3 -6 2 -13 -4 -17 -6 -4
-7 -11 -4 -17 4 -7 2 -8 -4 -4 -7 4 -12 2 -12 -5 0 -8 -4 -8 -15 1 -9 7 -18
10 -22 6 -3 -3 0 -6 8 -6 11 0 11 -2 -1 -10 -10 -6 -11 -10 -2 -10 6 0 12 -4
12 -9 0 -4 -14 -7 -31 -5 -28 3 -29 2 -14 -12 12 -12 13 -19 4 -30 -6 -7 -7
-19 -3 -26 4 -7 -2 -5 -13 5 -17 15 -22 16 -32 3 -9 -11 -9 -16 0 -22 8 -5 9
-3 4 6 -5 9 -4 11 4 6 18 -12 1 -27 -22 -20 -22 6 -22 6 -2 -10 20 -15 20 -15
-1 -12 -12 3 -21 -1 -21 -9 0 -8 7 -11 15 -7 11 4 13 1 8 -7 -5 -7 -18 -10
-30 -7 -19 5 -20 4 -3 -8 16 -12 16 -14 2 -20 -9 -3 -13 -2 -10 4 3 6 1 10 -4
10 -6 0 -11 -5 -11 -11 0 -5 -5 -7 -10 -4 -6 4 -9 1 -8 -7 2 -7 -2 -12 -9 -11
-13 3 -12 -22 2 -34 4 -4 5 -3 1 4 -11 19 11 24 25 6 8 -10 9 -14 2 -10 -6 4
-14 3 -18 -2 -3 -6 -12 -8 -19 -5 -13 5 -16 -22 -3 -42 3 -6 0 -11 -8 -11 -8
0 -11 5 -8 10 3 5 0 7 -8 5 -8 -3 -13 -11 -12 -17 2 -6 -2 -11 -7 -11 -6 0
-10 -4 -10 -10 0 -5 8 -7 18 -4 14 5 15 4 2 -5 -21 -15 -43 -14 -34 2 4 6 -2
3 -15 -7 -14 -13 -18 -23 -11 -30 13 -13 13 -39 0 -31 -5 3 -10 1 -10 -6 0 -7
-9 -5 -22 7 -20 17 -21 17 -8 1 12 -16 12 -20 -1 -29 -11 -8 -11 -9 4 -4 9 3
17 1 17 -4 0 -6 -10 -10 -21 -10 -17 0 -19 -3 -10 -14 9 -11 9 -16 0 -22 -7
-4 -9 -3 -6 3 4 6 0 13 -8 17 -8 3 -17 0 -21 -6 -4 -7 -3 -8 4 -4 7 4 12 1 12
-9 0 -10 -5 -13 -12 -9 -9 5 -9 3 1 -9 7 -9 18 -14 24 -10 6 3 7 1 3 -5 -5 -9
-13 -9 -28 -1 -18 10 -19 8 -13 -13 7 -19 6 -21 -7 -11 -10 9 -17 10 -25 2
-13 -13 -6 -42 8 -33 5 3 9 0 9 -5 0 -6 -10 -11 -22 -11 -13 0 -18 -4 -13 -8
6 -4 11 -14 13 -22 3 -12 1 -13 -9 -2 -16 15 -29 16 -29 1 0 -5 5 -7 10 -4 6
4 9 -3 7 -15 -2 -12 -10 -26 -18 -30 -8 -5 -14 -13 -14 -17 0 -4 -6 -17 -12
-28 -10 -17 -13 -17 -30 -5 -17 14 -17 14 0 -7 12 -14 15 -23 7 -28 -5 -3 -8
-11 -5 -16 3 -5 -1 -6 -10 -3 -14 6 -14 8 2 21 16 13 16 13 -5 3 -18 -9 -21
-14 -12 -25 8 -10 8 -15 -1 -21 -8 -5 -9 -3 -4 5 6 10 3 11 -14 2 -11 -7 -21
-14 -21 -17 0 -3 4 -3 9 0 5 3 11 -3 14 -14 4 -16 2 -18 -12 -10 -13 6 -18 5
-18 -5 0 -8 4 -12 8 -9 4 2 10 0 14 -6 3 -5 1 -10 -5 -10 -7 0 -26 -12 -44
-27 -17 -15 -23 -24 -13 -20 15 6 21 -1 15 -20 -1 -5 -8 -7 -15 -5 -7 2 -13
-2 -13 -8 0 -5 6 -10 13 -10 8 0 9 -3 1 -8 -6 -4 -10 -17 -9 -29 1 -12 -2 -20
-7 -17 -4 3 -6 16 -4 30 3 13 0 24 -5 24 -5 0 -9 -6 -8 -12 4 -32 -2 -47 -16
-42 -8 4 -12 11 -8 17 4 6 1 7 -7 2 -10 -6 -9 -11 5 -21 10 -7 21 -11 26 -9 4
3 11 0 15 -6 4 -8 3 -9 -4 -5 -10 6 -39 -32 -33 -44 1 -2 -3 -6 -11 -8 -8 -2
-9 0 -3 5 14 11 17 40 5 48 -5 3 -7 0 -4 -9 3 -8 -5 -25 -17 -37 -16 -16 -18
-21 -6 -16 9 3 17 2 17 -3 0 -6 -4 -10 -9 -10 -5 0 -7 -17 -5 -37 2 -26 0 -33
-6 -23 -5 8 -6 18 -4 22 3 4 1 8 -5 8 -12 0 -11 -40 1 -57 6 -7 4 -14 -3 -19
-7 -4 -10 -3 -7 2 3 5 0 14 -7 21 -18 16 -28 -9 -12 -27 10 -10 7 -12 -10 -7
-13 3 -26 0 -30 -5 -3 -7 -1 -8 5 -4 7 4 12 2 12 -4 0 -6 4 -9 9 -6 4 3 8 -4
7 -16 0 -12 -7 -23 -14 -24 -7 -1 -8 0 -2 3 15 7 12 20 -5 27 -8 3 -14 2 -14
-2 4 -28 -3 -41 -18 -36 -14 5 -15 4 -4 -4 8 -6 21 -8 29 -4 10 3 13 1 8 -6
-4 -7 -16 -12 -26 -12 -10 0 -21 -4 -24 -9 -4 -5 4 -7 16 -5 13 2 17 2 11 -2
-7 -3 -13 -10 -13 -15 0 -6 5 -7 11 -4 6 4 5 -2 -3 -14 -7 -12 -17 -21 -22
-21 -4 0 -3 6 3 14 9 11 9 16 0 22 -7 4 -9 3 -5 -4 3 -6 1 -14 -4 -17 -8 -5
-5 -14 7 -27 18 -21 18 -21 -7 -8 -23 12 -24 12 -11 -3 7 -10 10 -17 6 -17 -4
0 -1 -8 6 -17 13 -17 13 -17 -5 -3 -18 14 -19 13 -13 -2 7 -20 -8 -34 -19 -17
-5 8 -3 9 7 4 11 -7 11 -5 -1 11 -8 10 -16 21 -18 24 -2 2 0 -11 3 -30 3 -19
11 -40 16 -46 7 -8 6 -15 -2 -20 -7 -4 -9 -3 -6 3 4 6 0 13 -8 16 -11 5 -12 1
-4 -20 7 -19 6 -28 -1 -33 -7 -4 -12 -11 -12 -16 1 -5 -5 -8 -12 -6 -7 1 -13
-4 -13 -12 0 -9 7 -12 16 -9 13 5 13 3 4 -7 -15 -16 -47 -5 -37 12 4 7 3 9 -1
5 -13 -11 -15 -67 -4 -67 6 0 8 4 4 9 -8 13 8 21 24 12 8 -6 2 -13 -21 -24
-18 -9 -26 -17 -16 -17 12 0 15 -7 11 -27 -2 -16 -5 -39 -5 -53 0 -14 -3 -19
-5 -12 -3 6 -9 9 -15 6 -6 -4 -5 3 1 15 7 12 9 27 5 33 -4 7 -3 8 4 4 7 -4 12
-3 12 3 0 5 -9 9 -20 8 -13 -1 -16 -5 -10 -11 13 -13 13 -29 0 -21 -5 3 -7 0
-4 -9 3 -8 -4 -24 -15 -35 -24 -24 -20 -26 12 -10 22 12 22 12 3 -9 -11 -13
-16 -28 -12 -38 5 -14 4 -15 -9 -4 -8 7 -12 17 -8 23 3 6 1 7 -5 3 -9 -5 -7
-14 4 -32 18 -27 13 -32 -9 -9 -13 12 -14 10 -13 -15 0 -17 5 -30 10 -30 6 0
1 -6 -10 -14 -10 -8 -16 -18 -11 -22 4 -4 7 -2 7 4 0 7 4 12 9 12 12 0 2 -38
-12 -47 -5 -3 -7 -1 -4 4 4 6 1 13 -7 16 -19 7 -15 -26 4 -35 12 -5 11 -7 -4
-7 -14 -1 -17 -7 -14 -26 4 -20 2 -23 -8 -15 -10 9 -11 6 -7 -9 3 -13 1 -21
-6 -21 -7 0 -9 5 -5 12 4 7 3 8 -4 4 -8 -4 -8 -15 -2 -31 6 -16 6 -27 -2 -31
-7 -5 -8 -3 -3 6 5 8 4 11 -3 7 -5 -4 -8 -17 -4 -29 3 -14 1 -19 -6 -14 -6 3
-14 1 -18 -5 -4 -7 -3 -9 2 -6 6 3 16 1 24 -4 13 -8 12 -11 -3 -23 -17 -14
-24 -32 -8 -21 5 3 12 1 15 -4 7 -11 -13 -9 -32 2 -7 5 -10 12 -7 17 3 5 1 11
-4 14 -15 10 -6 -23 12 -45 10 -11 23 -17 29 -13 6 4 8 3 5 -3 -4 -6 -18 -9
-32 -8 -14 2 -23 -1 -20 -5 3 -5 -2 -13 -11 -18 -15 -8 -15 -10 0 -15 11 -5
15 -3 10 5 -5 7 -3 8 6 3 8 -5 11 -4 6 3 -3 6 -1 14 6 18 7 4 10 4 6 -1 -4 -4
-3 -14 4 -22 9 -11 8 -13 -3 -11 -9 2 -13 -5 -12 -22 1 -14 -1 -19 -3 -12 -3
6 -10 10 -15 7 -5 -4 -6 1 -3 9 3 9 2 16 -3 16 -11 0 -12 -5 -17 -70 -2 -31 2
-51 13 -64 9 -11 11 -16 5 -13 -7 4 -17 0 -23 -7 -10 -11 -8 -17 6 -26 16 -10
16 -10 -4 -5 -12 3 -25 1 -29 -6 -4 -8 -3 -9 5 -5 8 5 10 0 7 -18 -3 -16 0
-26 7 -26 7 0 4 -5 -6 -11 -14 -8 -23 -7 -40 8 -18 14 -17 12 3 -11 20 -23 21
-28 7 -23 -11 4 -16 3 -12 -3 3 -6 -1 -10 -10 -10 -10 0 -13 5 -9 12 4 7 3 8
-5 4 -17 -11 -2 -29 20 -23 10 3 22 0 26 -6 3 -7 3 -9 -2 -5 -5 5 -15 -1 -22
-12 -8 -11 -19 -17 -25 -14 -7 4 -8 2 -4 -5 4 -6 11 -9 15 -7 4 3 13 1 21 -5
11 -6 12 -9 2 -9 -7 0 -10 -4 -7 -10 3 -5 -1 -10 -11 -10 -15 0 -15 -2 1 -26
11 -17 13 -30 7 -36 -6 -6 -12 -5 -17 3 -5 8 -4 10 3 5 7 -4 12 -2 12 4 0 7
-6 10 -12 7 -7 -2 -12 -10 -10 -17 2 -7 -5 -21 -15 -32 -13 -15 -14 -18 -2
-13 9 3 21 0 27 -8 9 -10 5 -13 -19 -11 -24 2 -28 -1 -19 -11 8 -10 8 -15 0
-20 -8 -5 -6 -13 6 -26 13 -15 14 -19 3 -19 -11 0 -12 -2 -1 -9 11 -7 11 -9
-2 -14 -9 -4 -24 -4 -33 -1 -15 5 -16 4 -3 -5 13 -10 8 -15 -12 -12 -4 0 -5
-6 -2 -14 7 -17 25 -20 22 -4 -2 6 4 14 12 16 9 3 11 1 4 -4 -5 -4 -9 -23 -8
-40 0 -18 -3 -33 -8 -33 -5 0 -6 -4 -3 -10 3 -5 1 -10 -5 -10 -7 0 -9 7 -6 15
3 8 9 22 12 30 3 8 1 15 -6 15 -6 0 -8 -5 -4 -12 5 -7 2 -9 -9 -5 -22 8 -14
-30 13 -55 11 -10 20 -22 20 -25 0 -4 -3 -3 -7 0 -3 4 -13 1 -22 -6 -14 -11
-14 -10 -2 6 7 9 9 17 3 17 -9 0 -22 -22 -22 -36 0 -3 8 -3 18 0 12 4 19 1 19
-8 0 -8 -7 -12 -16 -9 -11 3 -10 0 4 -13 l20 -17 -20 8 c-39 14 -50 15 -28 4
16 -8 23 -21 23 -41 0 -21 4 -27 13 -22 9 6 9 4 -1 -8 -7 -9 -9 -18 -5 -20 4
-3 2 -3 -5 -2 -17 4 -15 -7 5 -35 9 -14 11 -21 5 -17 -19 12 -26 -17 -7 -31
11 -7 14 -13 7 -13 -6 0 -17 9 -25 21 -10 13 -17 17 -22 9 -5 -8 -11 -7 -23 2
-13 12 -14 10 -4 -9 15 -28 34 -40 25 -16 -5 15 -3 16 8 6 20 -19 -4 -41 -26
-23 -13 11 -15 10 -10 -3 4 -8 2 -18 -4 -22 -14 -8 -14 -25 -1 -25 6 0 9 5 8
11 -2 6 5 13 15 14 18 3 18 2 2 -15 -15 -17 -15 -19 2 -30 16 -10 16 -11 1 -6
-14 4 -17 0 -14 -17 2 -12 9 -21 16 -19 6 1 9 -2 5 -8 -3 -6 -12 -7 -18 -3
-19 12 -57 11 -64 -1 -3 -6 -2 -8 2 -3 5 4 17 -1 28 -10 11 -10 17 -12 13 -5
-4 6 -3 12 2 12 6 0 13 -7 16 -16 4 -9 2 -13 -5 -8 -7 4 -10 1 -7 -6 2 -7 12
-14 22 -16 10 -1 21 -6 24 -10 4 -4 0 -5 -10 -1 -11 4 -18 -1 -22 -19 -7 -26
-23 -33 -23 -9 0 8 4 12 9 9 4 -3 8 2 8 11 0 10 -5 13 -12 9 -6 -4 -8 -3 -5 3
4 6 -1 17 -11 24 -16 13 -16 13 -2 -5 14 -18 13 -19 -5 -13 -17 6 -18 5 -5 -6
21 -17 25 -41 6 -34 -9 4 -18 2 -21 -4 -4 -5 -3 -9 2 -8 22 4 32 -3 28 -19 -4
-24 10 -48 19 -33 4 6 3 11 -2 11 -5 0 -9 7 -9 16 0 15 2 14 13 -1 16 -22 1
-47 -22 -38 -8 3 -14 0 -14 -5 0 -6 14 -9 33 -7 20 3 27 1 18 -4 -8 -5 -10
-14 -6 -22 6 -11 5 -11 -5 -2 -14 13 -40 7 -40 -9 0 -7 5 -6 14 1 11 9 15 8
20 -4 3 -10 11 -13 18 -9 10 6 10 4 2 -7 -6 -8 -10 -30 -9 -49 1 -19 -3 -41
-9 -49 -6 -8 -9 -17 -8 -20 27 -46 23 -74 -7 -47 -12 11 -21 12 -31 5 -12 -8
-11 -9 5 -7 13 2 20 -3 20 -13 0 -9 8 -24 18 -33 9 -10 17 -21 17 -25 0 -13
-26 -32 -34 -24 -3 4 -14 8 -22 9 -9 1 -13 -1 -9 -4 4 -4 12 -7 18 -7 7 0 12
-7 12 -15 0 -9 -8 -14 -20 -12 -16 2 -17 1 -5 -7 9 -6 19 -6 26 -1 7 7 15 2
23 -16 7 -16 7 -23 1 -19 -7 4 -9 -3 -5 -22 11 -46 12 -82 4 -77 -4 2 -10 0
-14 -6 -3 -5 -2 -10 3 -10 17 0 23 -32 10 -48 -7 -8 -13 -16 -12 -16 10 -12
23 -47 16 -42 -5 3 -15 -1 -22 -9 -6 -7 -19 -11 -28 -8 -14 4 -15 3 -2 -6 9
-6 18 -7 24 -1 14 14 23 12 29 -4 4 -10 1 -13 -7 -10 -7 3 -13 -2 -13 -11 0
-9 6 -14 14 -11 8 4 11 1 7 -5 -3 -6 -15 -9 -25 -6 -11 3 -17 1 -13 -4 3 -5
11 -9 17 -9 7 0 13 -9 14 -20 1 -11 -4 -20 -10 -20 -7 0 -6 -4 3 -10 8 -5 10
-10 4 -10 -16 0 -13 -72 4 -89 7 -7 10 -16 7 -19 -3 -4 -10 0 -15 8 -7 11 -9
10 -7 -7 0 -12 5 -19 9 -17 4 3 8 1 8 -5 0 -5 -9 -13 -20 -16 -11 -4 -17 -11
-14 -17 4 -5 9 -6 13 -2 10 14 28 14 28 1 0 -7 4 -20 8 -31 6 -14 5 -17 -6
-14 -8 3 -12 14 -11 24 3 15 1 16 -9 7 -9 -9 -9 -16 -1 -26 9 -10 8 -17 -1
-27 -9 -10 -9 -11 1 -6 6 4 12 2 12 -4 0 -6 5 -8 12 -4 7 4 8 3 4 -5 -4 -6
-12 -8 -18 -5 -6 4 -8 2 -4 -4 3 -5 3 -12 -1 -15 -5 -2 -2 -2 6 0 8 2 11 -2 8
-12 -8 -20 11 -29 31 -14 16 12 16 12 0 -6 -16 -18 -18 -18 -45 0 -20 13 -24
14 -16 3 7 -8 11 -17 8 -20 -3 -2 2 -5 10 -6 8 -1 22 -3 30 -4 11 -1 12 -5 4
-15 -9 -10 -15 -11 -26 -2 -7 7 -16 9 -20 5 -3 -3 0 -6 7 -6 9 0 7 -7 -6 -22
l-19 -23 24 20 c21 18 24 18 18 3 -4 -12 -1 -18 9 -18 8 0 13 4 10 8 -3 5 2 9
11 9 13 0 12 -4 -5 -17 -24 -20 -17 -36 8 -18 9 7 7 4 -5 -7 -30 -29 -19 -62
18 -56 13 2 7 -17 -8 -23 -21 -8 -19 -27 3 -20 9 3 6 -1 -7 -9 -15 -9 -20 -17
-12 -21 6 -4 11 -12 11 -18 0 -6 -7 -5 -17 3 -16 12 -17 12 -7 -1 6 -8 10 -23
9 -32 -2 -10 1 -18 6 -18 8 0 13 14 10 32 0 4 9 6 20 5 18 -1 18 -3 5 -13 -14
-9 -14 -13 -3 -23 8 -6 18 -7 22 -3 5 4 5 1 1 -6 -4 -7 -11 -10 -16 -7 -15 9
-20 -49 -4 -61 15 -12 20 -29 5 -20 -10 7 -20 -23 -14 -41 2 -7 10 -10 17 -7
8 3 16 -2 19 -10 8 -19 -1 -46 -15 -46 -5 0 -6 6 -3 13 4 6 0 4 -9 -7 -11 -13
-12 -24 -6 -37 13 -24 12 -32 -2 -23 -7 4 -2 -9 10 -30 23 -40 28 -61 12 -51
-6 4 -7 11 -4 17 4 7 2 8 -4 4 -9 -5 -9 -12 0 -26 9 -13 16 -16 24 -9 8 7 15
6 20 -2 5 -8 3 -9 -5 -4 -9 5 -12 2 -9 -11 2 -11 10 -18 18 -16 10 2 11 0 2
-11 -7 -8 -9 -17 -5 -21 4 -3 8 -17 10 -29 2 -15 0 -18 -6 -9 -7 11 -9 10 -14
-3 -4 -9 -3 -14 2 -11 4 3 17 -1 27 -9 18 -13 17 -14 -11 -10 -27 4 -28 3 -9
-6 12 -6 27 -23 34 -37 l12 -27 -26 28 c-14 15 -28 27 -32 27 -4 0 2 -9 14
-20 12 -12 22 -28 22 -36 0 -9 5 -12 12 -8 7 4 8 3 4 -5 -5 -8 -12 -9 -20 -2
-8 7 -12 4 -13 -12 -1 -12 1 -17 5 -12 4 6 16 11 27 12 19 1 19 1 3 -11 -19
-14 -25 -32 -8 -21 6 3 10 1 10 -4 0 -6 -4 -11 -10 -11 -5 0 -10 -5 -10 -11 0
-5 4 -8 9 -5 5 3 11 -1 14 -9 4 -10 1 -12 -11 -9 -9 3 -7 -1 6 -8 28 -17 18
-32 -12 -16 l-21 11 20 -20 c14 -15 24 -18 33 -10 7 5 15 7 19 3 3 -3 1 -6 -5
-6 -7 0 -12 -7 -12 -15 0 -9 -6 -12 -17 -9 -15 5 -15 4 -4 -4 8 -6 16 -19 18
-29 8 -38 9 -43 18 -50 4 -4 5 -2 0 6 -5 9 1 7 19 -4 31 -20 35 -30 6 -15 -15
8 -20 8 -20 -1 0 -8 -5 -7 -18 2 -15 13 -16 12 -4 -3 8 -9 11 -21 8 -26 -3 -5
1 -9 8 -9 8 0 12 6 9 14 -3 7 0 13 6 13 6 0 10 -3 10 -7 -1 -5 0 -12 1 -18 1
-5 3 -17 4 -25 0 -8 7 -14 15 -12 12 3 12 1 1 -15 -22 -28 -24 -29 -17 -10 5
12 3 16 -5 11 -7 -5 -8 -3 -3 6 5 8 4 11 -3 6 -6 -3 -13 2 -15 11 -3 13 -5 14
-6 3 0 -8 11 -28 25 -45 14 -16 23 -25 20 -19 -3 7 2 18 12 25 15 13 16 12 3
-3 -7 -10 -10 -18 -6 -18 4 0 1 -8 -6 -17 -8 -9 -9 -14 -3 -10 7 4 15 0 18 -9
3 -8 10 -13 14 -10 5 3 9 -1 9 -9 0 -8 -4 -12 -9 -9 -4 3 -8 2 -9 -3 0 -4 -2
-16 -4 -25 -2 -10 3 -18 11 -18 17 0 18 17 2 23 -10 4 -10 6 -1 6 7 1 17 -9
24 -20 6 -12 7 -19 2 -16 -4 3 -17 -2 -28 -10 -16 -13 -17 -15 -2 -10 9 4 17
2 17 -3 0 -6 -4 -10 -10 -10 -5 0 -10 -6 -10 -12 1 -7 10 -2 22 12 12 14 19
18 15 9 -3 -9 0 -22 6 -29 9 -10 9 -11 0 -6 -7 4 -21 2 -30 -4 -14 -9 -14 -10
-2 -7 9 3 23 -3 32 -14 17 -20 9 -27 -9 -9 -7 7 -11 6 -11 -5 0 -13 16 -20 40
-16 4 0 7 -4 7 -10 0 -6 -6 -9 -13 -6 -8 3 -20 1 -28 -4 -15 -9 -13 -10 30
-13 7 -1 21 -12 30 -26 9 -14 11 -21 4 -16 -7 4 -13 3 -13 -3 0 -5 5 -13 11
-16 6 -4 8 -13 5 -20 -2 -7 0 -17 5 -22 13 -13 20 -55 8 -48 -5 4 -9 -1 -9
-10 0 -10 -5 -13 -12 -9 -7 4 -8 3 -4 -5 6 -9 11 -9 23 0 12 11 14 10 13 -2
-6 -37 0 -51 18 -44 14 5 15 4 4 -7 -11 -11 -17 -9 -33 12 -16 20 -18 21 -10
4 6 -12 7 -25 3 -29 -4 -3 -2 -6 3 -5 25 5 56 -1 50 -10 -4 -6 -11 -7 -17 -4
-7 4 -8 2 -4 -5 4 -6 12 -9 17 -6 5 4 9 -1 9 -9 0 -9 -7 -13 -20 -11 -11 2
-20 0 -20 -6 0 -10 28 -8 49 5 10 7 12 3 6 -15 -7 -22 -7 -23 11 -9 17 14 18
14 6 -2 -9 -11 -10 -18 -3 -23 6 -3 16 -16 22 -28 10 -20 9 -20 -9 2 -17 20
-20 21 -25 7 -4 -11 -3 -15 4 -10 8 4 9 -1 4 -15 -4 -13 -2 -21 5 -21 6 0 9 4
6 9 -4 5 4 7 16 3 21 -5 21 -5 1 -13 -12 -4 -24 -12 -27 -18 -8 -13 24 -30 44
-23 13 5 13 3 1 -12 -13 -16 -13 -17 5 -14 16 2 19 -3 19 -34 0 -35 1 -36 21
-23 17 11 21 11 21 0 0 -8 -4 -12 -8 -9 -4 2 -12 -4 -18 -14 -7 -13 -4 -24 11
-42 11 -14 17 -20 15 -15 -3 6 -1 17 5 25 8 13 9 12 5 -2 -3 -9 -3 -19 1 -23
4 -3 7 -23 8 -43 0 -28 5 -37 17 -36 9 1 15 -3 14 -10 -1 -6 4 -10 11 -8 8 1
11 -2 7 -8 -5 -8 -12 -7 -23 2 -15 12 -16 11 -3 -5 7 -9 10 -17 5 -17 -4 0 1
-6 11 -14 11 -8 26 -11 35 -9 11 4 11 2 -2 -8 -21 -17 -10 -39 20 -42 15 -1
18 -5 11 -13 -5 -6 -6 -19 -3 -29 5 -13 9 -14 15 -3 6 9 8 5 7 -12 -2 -16 2
-24 10 -22 17 3 15 -3 -5 -19 -15 -12 -16 -12 -8 1 5 9 0 8 -13 -4 -24 -21
-31 -36 -8 -17 11 10 17 8 26 -6 11 -17 11 -17 6 0 -4 11 -2 16 5 11 6 -3 8
-18 4 -33 -6 -25 -6 -25 9 -6 15 20 15 20 11 -2 -3 -17 3 -27 23 -38 15 -8 23
-14 17 -15 -5 0 -3 -5 5 -11 12 -8 10 -9 -7 -4 -14 4 -23 2 -23 -5 0 -6 4 -9
9 -5 5 3 16 -2 25 -10 8 -8 25 -20 38 -25 20 -8 18 -9 -12 -6 l-35 5 23 -19
c14 -11 20 -24 16 -31 -5 -8 -3 -9 6 -4 9 5 10 2 6 -13 -4 -12 -2 -24 6 -28
17 -11 39 -14 34 -5 -3 4 0 13 5 21 7 11 8 9 6 -8 -2 -13 -9 -27 -15 -31 -7
-4 -4 -11 9 -20 12 -7 19 -8 15 -3 -3 5 1 9 8 9 10 0 12 -8 6 -27 -9 -33 -1
-48 23 -44 14 2 15 -1 8 -10 -6 -7 -7 -16 -3 -20 4 -4 7 -11 7 -15 0 -10 32
-41 42 -41 4 1 -1 9 -13 18 -19 16 -19 19 -6 32 14 13 15 12 9 -3 -3 -9 -2
-17 2 -17 17 0 20 -29 6 -44 -8 -8 -15 -18 -15 -22 0 -5 5 -3 12 4 18 18 31
14 51 -13 12 -17 14 -26 5 -31 -7 -5 -8 -3 -3 6 6 9 4 11 -5 5 -9 -6 -11 -4
-5 5 5 9 4 11 -3 6 -9 -5 -8 -12 0 -26 8 -13 16 -16 22 -10 13 13 26 13 26 -1
0 -5 -5 -7 -10 -4 -5 3 -10 -1 -10 -10 0 -11 5 -15 15 -12 8 4 17 1 21 -5 4
-6 3 -8 -3 -5 -6 4 -13 -3 -16 -14 -3 -12 -3 -18 0 -15 4 3 13 0 22 -7 14 -10
14 -10 3 4 -10 14 -10 18 3 23 9 3 13 2 10 -4 -3 -6 -3 -16 2 -22 11 -19 13
-39 2 -32 -5 3 -6 11 -3 17 4 7 3 8 -1 4 -16 -14 -13 -33 6 -34 17 -2 24 8 20
30 -1 5 2 6 7 3 5 -3 8 -15 7 -28 -1 -13 5 -32 14 -42 9 -11 10 -16 4 -12 -7
4 -13 2 -13 -3 0 -6 5 -11 10 -11 6 0 10 -5 10 -11 0 -5 -6 -7 -13 -3 -7 4 -8
3 -4 -2 5 -5 16 -9 25 -9 10 0 16 -7 16 -17 -1 -10 2 -15 7 -12 8 5 13 -9 11
-28 -1 -3 5 -9 13 -12 10 -3 12 0 9 12 -5 14 -4 15 4 2 8 -10 7 -19 -1 -30 -6
-8 -8 -12 -3 -8 9 7 43 -19 57 -44 7 -14 6 -16 -6 -12 -8 4 -15 2 -15 -3 0 -5
7 -10 15 -11 8 -1 22 -3 29 -4 8 -1 15 -4 14 -7 -2 -20 3 -31 12 -26 6 4 7 -1
3 -11 -5 -13 -3 -15 8 -9 12 7 12 6 1 -7 -11 -14 -10 -18 6 -27 11 -6 21 -8
24 -6 2 2 4 -5 5 -16 2 -17 -1 -18 -13 -8 -8 6 -16 10 -18 8 -2 -2 7 -12 20
-22 21 -16 25 -16 30 -3 3 9 10 16 14 16 5 0 3 -11 -3 -24 -7 -13 -16 -22 -21
-19 -5 4 -6 1 -1 -6 5 -9 10 -10 18 -2 6 6 17 11 25 11 9 0 6 -7 -9 -21 -13
-11 -19 -18 -12 -15 6 4 16 -2 22 -11 6 -10 11 -12 11 -5 0 6 5 12 11 12 6 0
8 -9 4 -20 -4 -12 -2 -20 5 -20 6 0 8 4 5 10 -3 5 -2 10 3 10 5 0 9 -13 10
-30 0 -16 -4 -30 -10 -30 -6 0 -8 -3 -5 -7 4 -3 17 2 29 13 13 12 18 13 13 4
-12 -20 -17 -79 -5 -60 7 11 11 11 24 -3 9 -9 25 -18 36 -22 14 -5 18 -13 15
-36 -2 -20 1 -32 11 -36 7 -3 11 -9 8 -14 -3 -5 2 -6 11 -2 13 5 14 7 3 14 -8
5 -9 9 -2 9 15 0 39 -29 30 -37 -3 -3 -6 -1 -6 6 0 7 -5 9 -11 5 -16 -9 11
-25 33 -18 9 2 19 0 23 -5 3 -6 0 -8 -8 -5 -19 7 -31 -12 -15 -22 7 -5 22 -8
33 -9 14 0 20 -7 20 -22 1 -23 11 -31 23 -17 4 4 1 4 -7 -1 -10 -6 -12 -4 -6
4 5 9 17 4 41 -20 26 -25 31 -36 23 -46 -9 -10 -8 -13 4 -13 8 0 18 6 20 13 3
6 4 -4 1 -23 -3 -27 -2 -31 5 -15 8 17 10 18 10 3 1 -10 7 -18 14 -18 8 0 7
-4 -3 -10 -8 -5 -10 -10 -5 -10 6 0 16 5 23 12 15 15 16 3 2 -22 -8 -15 -7
-17 13 -12 12 3 26 10 30 16 6 7 7 6 4 -4 -5 -19 30 -70 49 -70 8 0 14 -4 14
-10 0 -5 -6 -8 -12 -6 -7 1 -10 1 -5 -1 4 -3 4 -10 1 -15 -4 -6 -2 -8 3 -5 13
8 36 -17 26 -27 -4 -4 1 -4 12 0 18 7 18 6 6 -9 -7 -9 -9 -17 -3 -17 16 0 23
30 8 36 -8 3 -17 13 -21 22 -5 12 -1 12 16 -4 26 -24 50 -69 41 -78 -3 -4 2
-4 12 0 15 6 17 4 11 -6 -6 -10 -4 -12 8 -7 10 4 17 2 17 -5 0 -6 7 -5 18 3
15 13 16 12 4 -3 -9 -11 -10 -18 -2 -23 5 -3 10 -11 10 -18 0 -6 -7 -1 -16 11
-16 23 -34 29 -34 11 0 -5 4 -8 9 -5 5 3 16 -6 25 -19 9 -14 20 -23 25 -21 4
3 18 -8 30 -25 12 -16 27 -29 34 -28 23 3 37 -1 37 -10 0 -5 -9 -7 -20 -4 -11
3 -20 1 -20 -4 0 -6 16 -8 37 -6 32 3 35 2 23 -12 -11 -14 -11 -16 1 -13 8 2
13 -2 12 -9 -2 -9 4 -10 20 -4 15 6 26 4 35 -5 7 -8 19 -11 25 -8 7 4 9 3 4
-1 -4 -5 1 -18 10 -29 18 -21 18 -21 -4 -2 -13 11 -23 14 -23 8 0 -6 13 -16
29 -23 24 -11 28 -16 18 -28 -10 -12 -9 -13 9 -3 27 14 52 -6 32 -26 -8 -8 -6
-11 8 -11 39 -1 53 -5 48 -12 -2 -4 -1 -9 3 -12 5 -2 2 -2 -4 -1 -7 2 -13 -1
-13 -6 0 -6 12 -10 28 -10 21 0 24 -2 12 -10 -13 -8 -13 -10 2 -10 9 0 19 6
21 13 4 7 6 6 6 -5 1 -9 -7 -19 -17 -21 -10 -3 -6 -5 11 -6 15 0 27 -6 27 -12
0 -5 4 -7 10 -4 5 3 10 1 10 -4 0 -22 2 -26 18 -44 15 -17 17 -17 33 4 l17 23
-5 -27 c-6 -31 4 -35 23 -9 13 16 14 16 7 -2 -5 -15 -3 -17 8 -11 8 4 11 5 7
0 -4 -4 0 -13 8 -20 15 -11 15 -12 1 -12 -9 0 -19 7 -21 14 -7 16 -26 8 -26
-10 0 -8 3 -8 9 1 7 11 9 11 14 -1 4 -10 16 -14 34 -12 15 2 36 -4 45 -12 9
-8 22 -12 29 -7 7 4 10 3 5 -4 -3 -5 0 -12 6 -15 10 -3 10 -10 -1 -28 -12 -21
-12 -22 0 -12 11 9 18 8 32 -1 23 -17 22 -25 -3 -19 -11 3 -20 1 -20 -3 0 -15
65 -10 86 6 15 11 16 11 7 0 -18 -19 -16 -40 3 -40 8 0 13 4 10 8 -3 5 1 9 9
9 8 0 14 -3 13 -6 -2 -19 4 -22 19 -10 16 13 17 12 4 -3 -7 -10 -18 -15 -25
-11 -6 4 -5 -1 3 -10 15 -18 26 -23 16 -7 -3 6 -1 10 4 10 6 0 11 -7 11 -15 0
-8 5 -15 11 -15 5 0 8 4 4 9 -3 5 -2 12 3 15 13 8 11 -27 -2 -44 -9 -13 -9
-13 5 -2 14 10 18 10 23 -3 3 -8 11 -15 18 -14 10 0 10 2 1 6 -7 2 -13 9 -13
15 0 7 4 7 13 -1 10 -8 17 -7 26 2 10 9 10 7 0 -10 -11 -19 -11 -25 0 -35 12
-11 13 -10 8 4 -3 10 -1 20 5 24 7 4 8 3 4 -4 -4 -7 -1 -13 6 -13 7 -1 18 -2
23 -3 10 -1 78 -67 79 -76 0 -3 7 -4 14 -2 8 2 11 -1 7 -7 -4 -7 0 -8 11 -4
11 4 13 8 6 11 -7 2 -12 8 -12 14 0 6 6 5 15 -2 9 -7 13 -21 10 -31 -4 -11 -2
-19 5 -19 6 0 8 5 5 10 -3 6 1 10 10 10 9 0 14 -4 11 -8 -2 -4 0 -14 6 -22 8
-12 9 -12 4 2 -3 10 -1 20 4 23 6 4 10 0 10 -8 0 -9 9 -13 23 -12 15 2 24 -2
24 -11 0 -9 -4 -10 -12 -4 -6 5 -17 5 -24 1 -9 -6 -10 -11 -2 -15 6 -4 11 -2
11 5 0 10 3 10 12 1 9 -9 16 -8 31 5 15 14 18 14 15 3 -2 -8 2 -14 8 -13 6 1
11 -5 11 -13 0 -7 -7 -14 -16 -15 -11 0 -12 -2 -3 -6 7 -3 19 1 28 7 12 11 13
10 7 -6 -6 -17 -5 -18 12 -4 15 12 17 12 10 1 -6 -11 -4 -13 7 -8 10 3 20 -3
28 -19 8 -13 18 -24 23 -24 5 0 4 6 -2 14 -9 11 -9 16 1 22 7 4 10 4 6 -1 -4
-4 -1 -14 7 -21 19 -20 27 -17 16 4 -7 14 -6 19 3 19 14 0 15 -25 1 -46 -6
-11 -4 -13 9 -8 10 4 22 7 27 7 4 0 5 8 2 17 -5 14 -3 13 13 -3 13 -12 16 -22
10 -26 -6 -4 -7 -10 -3 -14 4 -4 13 -2 19 4 8 8 15 7 24 -6 17 -21 18 -36 2
-26 -7 5 -8 3 -3 -5 5 -9 10 -10 18 -2 15 15 30 14 21 -1 -6 -10 -4 -10 7 0
19 17 34 15 19 -3 -7 -9 -10 -18 -6 -22 3 -3 6 0 6 8 0 12 2 12 9 0 5 -7 20
-13 35 -13 15 0 26 -6 26 -14 0 -7 4 -16 10 -19 6 -3 7 1 4 9 -10 26 4 18 21
-11 15 -28 16 -28 10 -3 -2 14 -2 19 1 12 4 -9 10 -10 18 -3 8 7 12 4 13 -12
2 -18 0 -19 -8 -7 -9 13 -10 13 -6 0 2 -8 12 -14 22 -12 11 2 14 -1 9 -9 -4
-8 -3 -10 4 -5 6 4 9 13 5 21 -3 8 -1 15 4 15 13 0 14 -43 0 -52 -7 -4 2 -6
19 -4 17 2 37 0 45 -5 12 -7 12 -9 0 -9 -8 0 -12 -3 -8 -6 12 -12 28 7 18 20
-8 9 -7 13 4 13 8 0 12 -3 10 -7 -7 -12 11 -28 62 -54 32 -16 59 -23 70 -19
15 6 16 4 6 -8 -11 -13 -8 -15 17 -11 19 3 30 0 30 -8 0 -8 11 -11 30 -8 35 5
39 -5 8 -19 -15 -6 -18 -12 -10 -17 7 -4 12 -2 12 3 0 6 15 11 34 11 26 0 36
-5 41 -20 4 -12 14 -19 23 -18 10 2 16 -3 14 -10 -1 -8 2 -11 7 -7 6 3 8 12 5
19 -3 8 -1 17 5 21 7 4 8 0 4 -11 -5 -13 -3 -15 8 -9 10 7 9 1 -4 -18 -9 -15
-13 -27 -7 -27 5 0 10 5 10 11 0 8 5 7 15 -1 13 -10 18 -11 28 -1 9 10 8 11
-8 6 -17 -6 -18 -5 -5 5 13 10 12 11 -5 5 -16 -5 -17 -4 -8 6 18 18 45 -7 38
-35 -3 -12 -2 -15 1 -8 5 10 9 10 20 1 12 -10 13 -9 8 4 -4 12 -1 14 18 10 13
-3 28 -10 35 -15 15 -12 36 0 27 15 -4 7 -3 8 2 4 5 -5 10 -13 10 -18 1 -5 2
-14 3 -20 0 -5 7 -7 14 -2 19 12 47 14 47 4 0 -6 -8 -8 -18 -6 -11 2 -19 -3
-19 -11 0 -8 4 -14 9 -14 4 0 8 5 8 12 0 6 3 8 7 5 3 -4 13 -1 21 6 13 10 14
9 4 -10 -20 -37 -13 -39 19 -3 22 26 26 28 14 8 -11 -18 -13 -28 -5 -33 6 -3
8 -11 5 -16 -3 -5 1 -6 10 -2 9 3 13 9 8 12 -11 8 -11 27 0 38 5 4 7 1 5 -7
-2 -8 3 -14 10 -12 7 1 12 -4 10 -11 -2 -7 2 -14 7 -15 6 -1 10 2 10 7 0 5 4
13 9 18 5 5 6 3 2 -4 -4 -7 -2 -14 3 -14 6 -1 16 -2 21 -3 11 -1 12 -18 3 -26
-4 -3 -3 0 0 6 3 6 0 11 -7 11 -7 0 -13 -5 -13 -12 0 -6 11 -11 23 -11 12 0
20 4 18 8 -3 4 0 8 7 8 8 0 8 5 -2 18 -12 15 -11 14 8 -1 13 -12 27 -16 35
-11 10 6 10 4 -1 -9 -10 -13 -10 -17 -1 -17 10 0 9 -4 -1 -18 -11 -15 -11 -15
1 -4 8 7 16 17 16 22 1 6 2 13 3 16 0 4 10 -5 22 -20 15 -19 24 -24 33 -16 7
5 16 7 19 3 7 -6 11 13 8 31 -1 5 5 4 13 -4 9 -7 16 -18 16 -24 0 -6 -5 -4
-11 4 -9 13 -10 13 -6 0 4 -17 57 -15 70 4 6 7 7 4 3 -7 -7 -21 10 -23 22 -1
8 14 10 14 22 0 10 -13 16 -14 27 -4 11 9 13 8 11 -2 -2 -8 5 -16 16 -18 13
-3 16 0 11 9 -6 8 -4 10 4 4 9 -5 10 -10 2 -18 -6 -6 -11 -16 -11 -21 0 -6 4
-4 10 4 8 12 10 12 16 -3 6 -16 9 -15 26 10 11 15 18 20 14 11 -3 -12 0 -18
10 -18 8 0 13 -4 10 -9 -9 -14 18 -7 46 11 20 13 25 13 25 3 0 -8 -4 -12 -8
-9 -4 2 -10 0 -14 -5 -3 -6 4 -8 16 -6 15 3 19 0 15 -10 -3 -8 0 -15 5 -15 6
0 9 9 6 19 -3 11 1 22 9 25 8 3 11 0 8 -8 -3 -8 0 -17 7 -22 8 -4 10 -3 5 4
-4 7 -2 12 3 12 6 0 11 -7 11 -15 0 -8 5 -15 11 -15 5 0 8 4 5 9 -7 10 19 23
28 14 3 -4 6 -11 6 -17 0 -6 -5 -4 -10 4 -5 8 -10 10 -10 4 0 -6 7 -17 15 -24
8 -7 15 -9 15 -5 0 4 6 2 14 -4 10 -9 17 -7 27 6 12 16 12 17 -1 6 -13 -10
-18 -8 -28 7 -7 12 -8 21 -2 25 6 4 9 1 8 -7 -2 -7 5 -13 14 -13 24 0 33 -12
20 -28 -9 -10 -8 -14 3 -14 8 0 12 4 9 9 -5 7 18 13 40 9 4 -1 16 4 25 11 14
11 14 11 4 -3 -7 -9 -9 -19 -5 -24 4 -4 -3 -3 -15 4 -12 6 -24 7 -27 3 -3 -5
1 -9 9 -10 8 -1 22 -3 30 -4 14 -1 19 -12 16 -31 -1 -5 3 -6 9 -2 7 4 7 12 0
25 -13 24 -13 30 0 30 6 0 10 -6 10 -14 0 -18 27 -29 36 -14 4 6 3 8 -4 4 -6
-3 -14 -1 -18 6 -4 7 -4 10 1 6 4 -4 14 -3 21 3 8 7 14 7 19 -1 3 -5 11 -10
17 -10 6 0 5 7 -3 18 -12 15 -11 14 8 -1 12 -11 26 -16 31 -13 11 6 9 -24 -3
-44 -8 -13 -6 -13 8 -1 9 7 14 17 11 22 -11 18 16 8 37 -13 23 -24 17 -6 -10
27 -15 19 -15 19 4 5 11 -8 26 -21 33 -29 7 -9 12 -11 12 -3 0 7 5 12 11 12 5
0 7 -5 3 -12 -4 -6 -3 -8 4 -4 5 3 13 0 15 -6 4 -10 6 -10 6 0 1 8 6 10 14 6
9 -6 9 -4 -1 8 -7 9 -24 15 -38 13 -13 -1 -22 0 -18 4 3 3 20 6 37 6 21 0 31
4 29 13 -1 8 2 11 8 7 8 -5 8 -11 0 -20 -8 -9 -8 -15 0 -20 5 -3 10 -1 10 4 0
6 5 11 11 11 5 0 8 -4 5 -9 -3 -5 2 -15 12 -22 16 -13 16 -13 2 5 -14 18 -13
19 4 13 15 -6 17 -5 8 6 -9 10 -8 14 3 14 8 0 15 -6 15 -13 0 -7 4 -16 10 -19
6 -4 7 1 3 11 -5 13 -3 15 7 9 10 -6 12 -4 7 11 -7 18 -7 18 8 0 11 -14 15
-16 15 -5 0 9 3 10 8 3 4 -6 15 -10 24 -9 12 2 15 -2 11 -13 -4 -12 2 -10 20
7 16 15 27 19 27 12 0 -9 4 -10 13 -4 17 14 44 12 44 -3 0 -7 -3 -11 -7 -9 -4
2 -7 -2 -7 -9 0 -19 25 -8 32 13 7 23 31 23 31 0 0 -13 -3 -15 -13 -7 -7 6
-13 6 -13 2 0 -5 10 -15 23 -23 12 -7 19 -10 15 -6 -12 12 27 35 51 30 11 -2
23 0 26 6 4 5 11 9 18 9 6 0 2 -6 -8 -14 -11 -8 -27 -12 -37 -11 -10 2 -20 0
-23 -4 -2 -5 10 -7 28 -6 17 2 35 -2 38 -7 4 -6 10 -1 14 11 6 20 35 25 51 8
4 -3 -2 -5 -13 -3 -12 3 -20 -1 -20 -10 0 -8 4 -14 9 -14 4 0 8 5 8 11 0 8 6
7 17 -2 13 -11 15 -11 9 -1 -6 10 -2 13 15 10 13 -2 28 -7 32 -13 5 -6 6 -2 3
8 -3 10 -2 15 3 12 5 -3 11 0 14 7 2 7 2 2 0 -12 -2 -14 0 -20 4 -15 11 14 66
17 57 3 -4 -7 -3 -8 4 -4 6 4 9 13 6 20 -3 8 0 17 7 22 8 4 10 3 5 -4 -4 -7
-2 -20 4 -29 11 -17 11 -17 6 -1 -8 27 1 22 19 -9 15 -27 15 -27 9 -3 -6 23
-6 24 12 10 18 -14 18 -14 5 2 -7 10 -17 15 -22 12 -5 -3 -9 -1 -9 4 0 5 14 9
30 9 17 0 30 -4 30 -9 0 -5 -5 -6 -11 -2 -6 3 -3 -5 6 -20 20 -30 27 -34 18
-9 -5 11 -3 14 6 8 10 -6 11 -3 2 13 -8 15 -8 23 1 28 6 4 8 3 5 -3 -4 -6 -1
-16 7 -22 11 -9 17 -8 29 4 16 16 32 21 23 7 -2 -4 4 -13 14 -20 19 -11 25 -8
43 25 8 13 -18 12 -30 -2 -4 -4 -2 -5 5 -1 14 8 17 -10 2 -19 -10 -6 -26 22
-18 31 11 10 48 12 54 3 4 -6 11 -6 20 2 8 6 14 8 14 4 0 -4 7 -2 15 5 10 9
15 9 15 1 0 -10 -13 -15 -32 -12 -4 0 -4 -7 -1 -16 4 -11 8 -13 11 -5 2 7 10
12 18 12 9 0 13 -4 10 -8 -2 -4 5 -8 17 -9 12 0 16 1 9 4 -6 3 -9 10 -6 15 5
7 2 8 -6 3 -9 -5 -11 -4 -6 3 11 18 21 14 36 -13 20 -37 23 -24 5 19 -9 21
-11 35 -6 31 6 -3 11 -12 11 -20 0 -14 16 -15 38 -2 6 5 12 5 12 0 0 -4 5 -1
10 7 5 8 10 11 10 5 0 -5 -5 -17 -10 -25 -8 -12 -10 -12 -10 -1 0 8 -2 12 -5
9 -3 -3 -2 -13 1 -22 5 -13 9 -15 15 -5 9 16 39 21 39 6 0 -5 3 -8 6 -5 3 4 1
17 -6 30 l-11 23 20 -22 c20 -24 41 -30 41 -12 0 5 -5 7 -12 3 -7 -4 -8 -3 -4
4 4 7 2 12 -5 12 -7 0 -9 3 -6 6 4 4 13 2 21 -5 8 -7 16 -8 18 -4 3 4 3 3 2
-4 -2 -6 4 -14 12 -17 10 -4 12 -2 8 6 -5 8 -1 9 12 4 10 -4 24 -8 29 -9 6 -1
14 -6 18 -12 5 -6 7 -3 3 8 -3 9 -1 17 4 17 6 0 10 -6 10 -12 0 -9 4 -8 10 2
7 11 10 11 10 2 0 -7 4 -11 9 -7 6 3 15 -3 20 -12 9 -14 10 -11 6 16 l-6 35
22 -20 c22 -19 22 -19 11 3 -10 18 -9 21 6 18 9 -1 22 2 28 6 7 6 16 4 24 -6
10 -12 9 -16 -4 -21 -9 -3 -16 -11 -16 -16 0 -7 5 -6 13 1 8 6 17 8 20 5 4 -4
5 2 3 12 -2 11 2 28 10 39 8 11 14 14 14 6 0 -8 7 -11 19 -8 15 3 18 1 14 -11
-4 -10 -2 -13 5 -8 7 4 12 2 12 -6 0 -9 3 -9 10 2 5 8 10 11 10 7 0 -4 9 -3
19 3 13 7 28 7 46 0 17 -7 24 -7 20 0 -3 6 -12 10 -18 10 -7 0 -18 9 -25 20
-7 11 -8 20 -3 20 5 0 11 -6 14 -14 4 -9 14 -12 28 -9 17 5 20 3 14 -7 -6 -9
-4 -11 4 -6 7 5 10 13 8 20 -3 7 6 13 21 14 25 2 25 2 6 -13 -18 -14 -18 -15
6 -6 14 5 24 14 23 20 -2 6 4 8 13 4 13 -5 13 -8 2 -15 -10 -8 -10 -9 2 -5 8
2 24 -3 35 -12 12 -9 15 -10 7 -1 -17 20 -15 26 8 27 11 1 18 -2 15 -7 -3 -4
5 -5 17 -2 16 4 18 7 8 9 -9 2 -22 14 -29 26 -13 20 -13 21 2 9 10 -9 17 -10
22 -2 8 13 25 13 25 -1 0 -5 -4 -8 -9 -4 -5 3 -13 0 -17 -6 -4 -7 -3 -9 4 -5
6 3 13 2 17 -4 3 -5 12 -10 18 -10 8 0 8 3 -2 9 -9 6 -10 11 -2 15 6 4 9 11 6
15 -2 5 7 7 20 5 16 -1 30 5 40 19 8 12 15 17 15 11 0 -5 -6 -16 -12 -23 -11
-10 -8 -11 15 -7 15 2 27 0 27 -5 0 -6 5 -7 11 -3 6 3 7 9 3 13 -12 8 -16 31
-6 31 5 0 14 -10 20 -23 6 -12 11 -16 11 -9 1 7 -4 22 -9 33 -7 13 -7 19 0 19
5 0 10 -7 10 -15 0 -8 5 -15 11 -15 5 0 8 -4 4 -9 -3 -5 0 -13 6 -17 8 -4 9
-3 5 4 -4 7 -2 13 3 13 26 3 30 4 37 11 4 4 13 3 21 -3 9 -9 13 -8 13 0 0 6
-4 11 -10 11 -5 0 -10 7 -10 15 0 8 5 15 11 15 5 0 7 -4 4 -10 -4 -6 1 -7 11
-3 10 4 15 2 11 -4 -3 -5 0 -10 8 -10 18 0 18 2 1 20 -12 11 -11 15 8 27 19
12 20 12 8 -3 -15 -18 0 -33 20 -20 7 4 16 8 19 8 10 0 38 32 34 39 -3 3 0 2
7 -3 7 -7 19 -6 32 0 20 10 20 10 2 -5 -11 -9 -17 -18 -14 -21 3 -3 11 1 17 9
7 8 19 12 26 10 8 -3 20 4 27 15 12 19 13 19 32 3 18 -16 18 -16 7 6 -10 18
-9 22 4 22 10 0 13 -5 9 -12 -4 -7 -4 -10 1 -6 4 4 15 2 24 -5 14 -10 14 -10
4 3 -9 12 -8 19 2 33 9 13 14 15 17 5 3 -7 16 -13 31 -13 14 -1 23 3 20 7 -2
5 -13 6 -22 3 -11 -3 -18 0 -18 8 0 9 10 12 29 9 15 -2 28 -8 28 -11 0 -4 7
-8 16 -8 15 0 15 1 0 12 -15 11 -15 13 -1 19 8 3 15 1 15 -3 0 -5 7 -11 15
-15 8 -3 14 0 12 6 -2 9 18 17 50 20 7 1 10 5 7 10 -3 4 -13 4 -23 -1 -13 -7
-18 -6 -18 4 0 7 7 11 15 7 10 -3 13 -1 8 6 -6 9 -1 9 18 0 14 -6 26 -16 26
-21 0 -6 3 -7 7 -4 3 4 -2 17 -13 28 l-19 22 28 -18 c27 -18 30 -16 28 20 -1
14 2 12 12 -9 l13 -29 11 26 c9 20 18 25 40 23 33 -4 46 1 37 15 -4 6 -11 5
-20 -2 -12 -10 -17 -9 -27 0 -9 10 -8 11 6 6 10 -4 17 -2 17 4 0 15 30 10 48
-6 7 -7 18 -13 25 -13 6 0 2 7 -9 15 -17 13 -15 14 26 11 25 -2 38 -2 30 0
-23 7 -42 41 -28 50 7 4 8 3 4 -5 -7 -11 7 -20 41 -25 10 -2 29 8 42 21 15 15
31 21 43 18 10 -4 18 -2 18 4 0 5 9 8 20 6 11 -2 18 0 15 6 -4 5 -1 9 4 9 6 0
11 -5 11 -12 0 -6 2 -9 5 -6 3 3 3 13 -1 22 -6 16 -8 16 -26 -1 -17 -16 -18
-16 -12 0 3 9 10 17 16 17 5 0 6 6 2 13 -4 6 4 2 18 -11 22 -20 26 -21 32 -7
3 9 2 13 -3 10 -5 -3 -12 -1 -16 4 -3 6 5 8 20 5 19 -3 23 -1 18 12 -4 10 -1
15 8 14 26 -4 40 0 35 9 -3 4 4 8 17 7 13 -1 21 4 19 12 -1 6 2 12 8 12 13 0
13 -17 0 -25 -5 -3 -6 -13 -3 -21 5 -15 7 -15 15 0 5 9 14 13 20 10 7 -4 8 -2
4 4 -6 11 12 17 37 13 4 -1 10 6 13 14 3 8 11 12 17 8 6 -3 7 -1 3 5 -5 9 -15
8 -37 -3 -16 -9 -29 -12 -29 -8 0 5 -5 1 -10 -7 -5 -8 -10 -10 -10 -5 0 6 5
17 10 25 7 11 10 11 10 2 0 -7 5 -10 10 -7 6 4 8 9 6 13 -2 4 12 7 32 7 24 0
39 -5 44 -15 5 -12 7 -12 7 3 1 11 6 15 12 11 6 -3 3 6 -7 22 l-18 29 23 -20
24 -20 -12 25 -12 25 19 -22 c17 -19 21 -20 26 -7 3 8 2 13 -3 10 -10 -6 -25
24 -16 32 3 3 5 0 5 -6 0 -7 6 -12 14 -12 8 0 17 -6 19 -12 4 -10 6 -10 6 0 1
10 6 10 24 2 18 -9 20 -9 7 2 -32 28 -42 46 -29 54 7 4 9 3 5 -4 -4 -6 4 -16
16 -23 21 -11 22 -11 9 5 -12 14 -12 16 4 10 14 -6 16 -4 11 7 -4 8 2 4 13 -9
17 -20 20 -20 20 -5 1 40 5 49 23 49 10 0 18 -4 18 -8 0 -4 4 -8 9 -8 5 0 7
10 4 23 -3 13 -1 17 4 11 14 -19 41 -13 35 8 -2 10 1 18 7 18 7 0 10 -4 7 -8
-2 -4 0 -14 6 -22 8 -12 9 -12 4 2 -3 10 0 23 7 30 7 7 14 22 15 33 5 28 9 29
15 5 3 -11 1 -18 -4 -14 -5 3 -6 -3 -2 -12 4 -11 8 -13 11 -6 2 7 9 12 15 12
17 0 39 37 26 44 -5 2 -4 3 3 2 7 -2 13 -10 13 -19 0 -8 4 -19 8 -24 5 -4 8
-3 7 2 -1 6 -2 16 -1 24 1 11 4 11 18 0 15 -13 15 -12 4 10 -10 18 -10 25 0
35 9 8 10 8 5 -1 -4 -7 -2 -13 3 -13 6 0 11 6 11 14 0 8 5 18 11 22 8 4 9 0 4
-15 -4 -13 -2 -21 5 -21 6 0 8 5 5 10 -3 6 0 10 7 10 7 0 19 9 26 20 7 12 18
17 29 14 10 -3 7 2 -7 10 -14 8 -19 15 -12 16 7 0 10 5 6 12 -4 7 -3 8 5 4 6
-4 9 -11 7 -15 -3 -4 4 -8 15 -8 10 -1 19 3 19 8 0 6 -4 8 -9 5 -5 -3 -12 1
-15 10 -3 8 -2 12 4 9 18 -11 53 -14 68 -6 12 7 12 9 -2 14 -10 4 -15 3 -11
-3 3 -6 1 -10 -4 -10 -6 0 -11 5 -11 11 0 5 -5 7 -12 3 -7 -4 -8 -3 -4 5 4 6
11 9 16 6 5 -3 12 -1 15 5 5 8 11 7 21 -1 8 -6 14 -8 14 -3 0 4 7 -1 15 -12
14 -18 14 -17 5 9 -14 40 -4 50 33 31 23 -11 27 -11 15 -1 -10 8 -15 17 -11
20 3 4 12 2 19 -4 8 -7 14 -6 20 2 4 7 3 9 -4 5 -16 -10 -26 14 -12 27 10 9
11 9 6 0 -7 -13 31 -10 43 3 3 4 -2 4 -11 1 -10 -4 -18 -2 -18 3 0 6 8 10 18
10 14 0 15 2 2 10 -10 7 -11 10 -2 10 7 0 15 -7 19 -15 5 -14 8 -13 19 4 9 12
22 18 34 16 11 -2 19 1 17 8 -1 7 4 11 12 9 12 -3 12 0 1 12 -15 19 -24 21
-14 4 5 -7 3 -8 -6 -3 -9 6 -11 4 -5 -6 5 -8 5 -11 0 -7 -4 4 -14 3 -21 -3 -8
-7 -14 -7 -19 1 -6 10 -5 11 18 14 6 1 10 8 9 16 -2 8 0 12 4 8 4 -4 14 -2 22
5 13 9 14 9 8 0 -4 -7 -4 -13 1 -14 4 0 16 -2 26 -4 17 -3 18 -2 3 14 -15 16
-15 19 -1 31 8 7 15 9 15 5 0 -5 8 -1 18 8 15 14 19 15 19 2 0 -8 -5 -11 -10
-8 -6 3 -7 1 -3 -6 4 -6 12 -9 17 -6 5 4 9 1 9 -6 0 -7 2 -10 5 -8 2 3 1 20
-5 37 -6 24 -6 31 3 25 26 -16 34 -10 31 21 -3 23 -1 27 6 16 8 -12 10 -13 10
-1 0 8 3 11 6 8 4 -4 1 -13 -6 -22 -8 -9 -8 -15 -2 -15 6 0 14 9 17 21 5 13
12 18 22 14 13 -4 14 -3 3 10 -7 8 -17 12 -23 8 -6 -3 -7 -1 -3 5 4 6 14 8 23
5 12 -5 14 -3 8 7 -5 9 -4 11 4 6 6 -4 14 0 17 9 4 10 13 13 26 9 14 -4 18 -2
14 5 -4 6 -2 12 3 12 20 3 26 5 51 19 14 8 28 14 32 15 3 0 9 3 12 7 3 5 3 6
-1 3 -3 -3 -13 1 -21 8 -13 10 -14 9 -7 -2 6 -10 4 -12 -5 -6 -9 5 -11 4 -6
-4 4 -6 4 -11 -1 -10 -21 4 -34 -2 -27 -13 5 -7 3 -8 -6 -3 -10 6 -9 11 6 22
10 8 17 20 16 26 -2 7 0 9 4 5 4 -4 14 -2 22 5 13 9 14 9 8 0 -4 -7 -3 -13 3
-13 11 0 27 39 22 55 -1 6 3 5 9 -1 9 -9 9 -17 1 -33 -7 -12 -9 -21 -7 -21 3
0 12 13 21 29 11 22 12 30 3 33 -7 3 -5 7 6 11 9 4 15 3 12 -2 -3 -5 1 -11 9
-14 10 -4 12 -1 8 11 -6 14 -4 15 8 5 12 -10 15 -8 15 6 0 11 -6 17 -13 14 -7
-3 -13 0 -13 7 0 6 4 9 9 5 5 -3 12 -1 16 5 4 6 11 8 16 5 18 -12 31 6 17 23
-8 10 -8 13 -1 9 6 -4 13 -4 16 0 2 5 2 2 1 -4 -2 -7 0 -13 5 -13 16 0 20 13
10 34 -9 18 -8 18 9 -3 13 -16 21 -20 26 -12 4 6 11 9 16 6 5 -3 12 0 16 6 5
8 3 9 -6 4 -10 -6 -12 -4 -7 8 4 10 -1 21 -11 27 -15 9 -14 10 5 5 18 -5 21
-2 17 17 l-5 23 11 -23 c5 -13 7 -29 4 -35 -3 -7 2 -3 10 7 9 11 16 25 16 30
0 6 5 4 10 -4 6 -9 10 -10 10 -3 0 6 -5 15 -10 18 -20 12 1 24 25 15 19 -7 23
-6 18 5 -3 8 -8 13 -12 10 -4 -2 -8 2 -8 10 0 18 14 20 20 3 2 -7 8 -10 12 -6
4 4 2 15 -5 23 -11 13 -11 16 1 13 8 -2 13 3 11 10 -1 8 2 11 8 7 6 -3 7 -12
3 -18 -4 -8 -1 -7 9 1 13 10 17 10 22 0 4 -9 5 -9 5 2 -2 30 1 41 10 35 5 -3
12 -1 16 5 4 6 10 8 15 5 4 -3 10 1 13 8 6 16 4 33 -5 30 -3 -1 -5 5 -4 15 2
12 13 17 35 18 17 0 37 6 43 12 7 7 9 12 4 12 -4 0 0 7 8 16 19 19 21 34 4 35
-7 0 -3 4 9 9 20 8 21 13 13 35 -7 17 -7 24 0 20 6 -3 10 -12 10 -20 0 -7 7
-15 15 -19 13 -4 13 -2 5 14 -16 30 -12 34 11 9 11 -13 18 -18 14 -11 -3 6 -1
12 5 12 6 0 8 5 4 11 -5 8 -9 8 -14 -1 -5 -8 -9 -5 -13 9 -3 14 2 26 15 35 13
9 17 19 12 28 -5 8 1 7 17 -4 24 -15 26 -15 26 0 0 10 -4 23 -10 30 -14 18 -1
15 19 -5 16 -16 17 -16 12 15 -3 18 0 36 5 39 6 3 7 2 4 -3 -3 -6 3 -15 14
-22 11 -7 19 -8 19 -2 0 5 -5 10 -10 10 -6 0 -9 12 -7 28 3 22 9 27 30 26 26
0 26 1 9 19 -17 19 -16 20 8 7 24 -13 25 -12 8 7 -10 11 -18 23 -18 28 0 5 6
1 13 -8 11 -16 14 -16 32 -2 19 16 19 16 -5 11 -14 -3 -19 -3 -12 0 6 3 10 9
8 13 -3 4 9 16 26 26 17 10 28 13 24 7 -3 -6 -1 -14 5 -18 7 -4 9 -3 6 3 -8
12 27 46 36 36 4 -3 7 -1 7 5 0 6 -9 10 -19 9 -11 0 -17 -5 -14 -11 3 -5 1 -6
-6 -2 -15 9 -5 26 16 26 9 0 13 3 10 7 -4 3 3 11 15 17 13 6 24 20 26 31 2 16
0 15 -12 -5 -14 -24 -15 -24 -13 -2 1 20 9 26 30 23 12 -2 8 17 -5 23 -8 3 -7
5 2 3 9 -1 28 10 44 26 15 15 32 24 38 21 6 -4 8 -3 5 3 -4 6 2 22 13 35 11
14 17 28 14 31 -3 3 4 10 15 16 12 7 18 17 15 26 -4 8 -11 12 -18 8 -6 -4 -5
0 2 9 7 9 21 15 31 13 10 -2 18 3 18 11 0 9 -4 10 -12 4 -6 -5 -16 -5 -25 2
-13 8 -13 9 0 5 9 -3 24 1 34 9 11 7 23 11 27 8 5 -3 6 3 2 12 -4 10 -2 15 4
11 5 -3 10 0 10 8 0 11 -5 12 -20 4 -10 -6 -21 -9 -23 -6 -3 2 9 10 26 17 18
7 27 17 23 24 -4 6 0 5 9 -2 13 -10 18 -10 24 -1 4 8 3 9 -4 5 -7 -4 -12 -4
-13 1 0 4 -2 19 -4 33 -2 14 -1 19 1 12 3 -6 11 -9 17 -5 7 4 6 -1 -2 -10 -12
-15 -12 -17 3 -11 9 3 16 13 16 21 0 8 4 12 8 9 4 -2 14 0 22 5 11 6 4 8 -20
5 -19 -3 -29 -3 -22 0 6 3 12 10 12 15 0 6 -5 7 -10 4 -6 -3 -10 -1 -10 4 0
14 17 14 25 1 3 -6 11 -10 16 -10 5 0 2 11 -6 24 -11 16 -13 26 -5 31 6 3 10
3 9 -2 -4 -22 3 -32 21 -30 11 1 20 5 20 10 0 5 -7 7 -15 3 -20 -7 -19 13 3
37 16 20 16 20 -3 14 l-20 -7 20 15 c11 9 20 24 20 35 0 10 4 22 9 27 5 4 6 3
2 -4 -3 -6 -3 -14 2 -17 11 -7 64 29 55 37 -6 7 12 11 31 8 5 -1 4 5 -3 13 -7
9 -17 14 -21 11 -4 -3 -10 1 -13 8 -3 7 5 13 19 13 14 1 21 -2 17 -9 -3 -6 -1
-7 5 -3 9 5 7 14 -5 32 -13 20 -13 24 -2 22 8 -2 14 5 14 15 0 10 7 22 15 27
10 6 11 10 3 10 -7 0 -10 7 -6 17 6 15 7 14 14 -3 4 -12 1 -24 -10 -33 -15
-13 -15 -13 2 -8 9 4 17 2 17 -4 0 -6 5 -7 11 -3 6 3 7 9 3 13 -16 11 -16 34
0 28 9 -4 15 -1 13 6 -1 7 4 11 11 9 6 -1 12 2 12 8 0 13 -6 13 -31 0 -13 -7
-19 -7 -19 0 0 5 7 10 16 10 13 0 14 3 5 14 -14 16 2 32 20 20 8 -4 7 -9 -2
-15 -24 -15 5 -9 31 7 21 12 22 14 4 9 -30 -8 -36 22 -12 60 18 28 19 28 13 5
-5 -21 -4 -23 7 -10 18 21 71 55 81 52 5 -1 5 2 2 8 -5 8 -13 6 -25 -5 -11
-10 -24 -14 -31 -9 -8 4 -10 3 -5 -4 4 -7 2 -12 -3 -12 -14 0 -14 13 1 28 9 9
9 12 -2 12 -11 1 -10 3 3 11 9 6 15 15 11 21 -4 5 5 3 19 -7 25 -16 25 -16 20
4 -3 12 -10 18 -17 14 -6 -3 -7 -2 -3 3 5 5 16 9 24 9 18 0 27 32 12 41 -6 3
-6 11 -1 17 4 7 8 19 7 27 0 8 5 21 12 28 7 8 11 18 8 23 -4 5 -1 9 5 9 6 0 8
5 5 10 -4 6 -1 9 7 8 7 -2 12 4 12 13 -1 9 4 16 11 16 7 0 11 -6 8 -14 -3 -8
2 -13 13 -13 16 0 17 2 4 10 -8 5 -11 10 -6 10 5 0 3 6 -3 14 -7 8 -8 17 -3
20 5 3 8 19 7 36 -2 27 -1 29 13 18 13 -11 15 -10 9 6 -6 15 -5 17 6 8 21 -18
28 -2 10 24 -14 22 -14 24 1 18 9 -3 14 -10 11 -14 -3 -4 2 -11 11 -14 15 -6
15 -4 1 17 -11 17 -12 28 -5 38 8 11 9 10 4 -3 -3 -10 0 -18 5 -18 7 0 9 11 7
24 -5 24 13 42 35 37 5 -1 5 4 1 10 -5 9 -2 10 9 6 24 -9 21 0 -3 13 -15 8
-20 8 -18 -1 2 -7 -6 -14 -17 -15 -15 -2 -16 -2 -2 2 9 3 15 9 12 14 -3 5 -1
11 5 15 5 3 10 11 10 16 0 6 -5 7 -12 3 -7 -4 -8 -3 -4 5 4 6 12 9 17 6 5 -4
9 -1 9 4 0 6 5 11 11 11 8 0 8 -4 0 -14 -9 -10 -8 -15 3 -19 9 -4 18 -1 22 5
4 6 3 8 -3 5 -6 -4 -10 12 -9 41 0 31 -3 46 -11 45 -7 -2 -10 4 -6 13 3 9 9
12 12 7 3 -5 15 -9 26 -8 15 0 20 7 20 25 0 14 4 31 8 38 5 8 2 24 -9 40 -14
22 -15 25 -1 14 13 -11 17 -10 26 6 7 13 7 22 -2 31 -9 10 -9 12 2 9 7 -2 16
3 19 11 2 8 0 11 -5 8 -5 -3 -9 3 -10 13 -1 11 2 22 8 25 5 4 6 -2 2 -11 -5
-13 -3 -15 7 -9 8 5 11 4 6 -3 -3 -6 -2 -13 4 -17 6 -4 7 -11 4 -17 -4 -7 -2
-8 5 -4 9 6 9 11 0 22 -10 13 -8 14 16 10 15 -3 24 -2 20 2 -3 4 -11 8 -16 8
-5 1 -13 2 -17 3 -4 0 -8 10 -9 21 -1 11 3 19 10 17 6 -1 11 7 11 18 0 11 5
23 11 27 6 5 5 8 -3 8 -10 0 -10 5 -2 20 8 14 8 20 0 20 -18 0 -7 33 13 36 9
1 15 -2 11 -7 -3 -5 -10 -7 -15 -4 -5 4 -9 2 -9 -2 0 -14 38 -34 45 -23 4 6 3
9 -2 8 -8 -3 -14 7 -12 17 1 3 2 11 3 18 1 6 7 11 14 9 18 -3 14 6 -8 18 -16
9 -18 8 -14 -5 4 -8 1 -15 -7 -15 -7 0 -9 3 -6 7 4 3 2 12 -5 20 -9 11 -8 13
3 11 10 -2 14 6 13 25 0 26 1 27 13 11 10 -14 10 -21 1 -33 -7 -9 -8 -13 -4
-9 5 4 15 3 23 -3 9 -9 13 -8 13 0 0 6 -5 11 -11 11 -8 0 -7 6 2 17 10 11 10
14 2 9 -8 -4 -13 -2 -13 8 0 8 -3 21 -6 30 -4 10 -1 16 9 16 8 0 18 -6 20 -12
4 -10 6 -10 6 -1 1 6 -4 15 -10 18 -6 5 -4 12 8 21 17 13 16 14 -7 11 -14 -2
-19 -2 -11 0 12 4 12 6 0 15 -10 7 -8 8 9 5 13 -3 29 2 39 11 9 10 20 17 24
17 4 0 11 4 16 8 4 5 4 7 -2 5 -5 -2 -10 2 -10 7 0 6 3 9 6 8 3 -1 6 5 6 13 0
17 -13 19 -20 2 -4 -9 -6 -8 -6 2 0 8 6 24 14 34 14 19 15 19 15 1 0 -10 3
-16 6 -12 4 3 3 14 0 24 -7 17 -8 17 -22 -1 -8 -11 -14 -16 -15 -10 0 5 -2 17
-4 26 -2 12 3 15 16 13 11 -2 23 -6 27 -9 5 -3 9 2 9 10 0 8 -6 13 -14 10 -7
-3 -13 -1 -13 4 0 5 -7 6 -17 3 -11 -4 -14 -3 -9 5 4 7 22 10 44 7 31 -4 33
-3 14 5 -22 9 -22 11 -6 35 9 14 20 23 24 20 4 -2 5 7 2 20 -2 14 -8 22 -13
20 -4 -3 -6 -11 -3 -18 2 -7 -6 -22 -18 -33 l-23 -19 19 22 c16 19 17 25 6 38
-11 13 -11 16 1 13 8 -2 13 3 11 12 -3 11 2 9 18 -5 20 -18 21 -18 14 0 -5 11
-4 16 3 12 5 -3 10 0 10 8 0 11 -4 12 -13 4 -8 -7 -14 -6 -20 2 -5 8 -3 9 6 4
10 -6 12 -4 7 8 -7 20 -3 21 23 7 13 -7 21 -7 25 0 4 6 1 9 -6 8 -6 -2 -14 3
-17 11 -3 9 0 11 8 6 9 -6 11 -4 5 5 -5 8 -1 18 11 27 17 13 17 13 -6 10 -16
-3 -24 -10 -22 -20 1 -8 -1 -18 -5 -20 -5 -3 -8 8 -8 24 -1 15 1 26 3 24 3 -2
14 1 26 7 11 7 25 11 31 9 5 -1 1 7 -9 18 -21 23 -35 29 -17 8 6 -8 8 -17 4
-20 -10 -11 -33 -8 -33 4 0 5 4 8 10 4 5 -3 8 9 7 29 -2 24 1 32 9 29 7 -3 11
-10 8 -18 -3 -7 2 -15 12 -19 14 -5 15 -4 4 9 -10 12 -10 15 1 15 9 1 8 4 -4
11 -9 6 -15 15 -11 21 4 7 9 6 14 -1 5 -9 10 -8 19 2 9 12 6 14 -19 11 -19 -2
-29 0 -25 6 3 6 14 10 25 10 10 0 21 7 24 16 4 10 2 13 -7 7 -6 -4 -16 -8 -22
-9 -5 -1 -19 -5 -30 -9 -13 -4 -12 -1 5 8 14 9 28 13 32 11 10 -6 11 10 1 19
-3 4 -13 1 -22 -6 -14 -11 -14 -10 -2 5 7 10 17 15 22 12 16 -10 9 29 -8 50
-13 15 -14 17 -2 9 12 -10 18 -10 29 0 10 10 11 9 5 -3 -8 -13 -7 -13 8 -1 18
14 23 26 8 17 -5 -3 -12 1 -15 10 -4 12 -2 15 9 11 8 -4 17 -1 21 5 4 7 3 8
-4 4 -7 -4 -12 -3 -12 3 0 6 -8 8 -17 5 -11 -4 -14 -2 -8 3 13 10 13 43 1 63
-8 12 -7 13 6 3 8 -7 18 -10 22 -6 4 4 4 0 1 -9 -4 -9 0 -18 11 -22 14 -5 15
-4 4 9 -10 12 -10 15 1 15 12 0 12 2 1 9 -8 4 -13 11 -13 15 5 37 -1 66 -11
60 -7 -4 -10 -4 -6 1 4 4 2 15 -5 24 -11 14 -10 15 7 1 18 -14 19 -13 14 7 -4
15 -2 20 8 16 10 -4 11 -10 4 -24 -8 -15 -7 -17 4 -13 9 3 15 9 14 12 -1 4 4
18 11 30 7 13 10 26 8 29 -3 2 -8 -5 -12 -16 -3 -12 -11 -19 -16 -15 -6 4 -6
10 1 19 8 9 4 12 -15 10 -14 -2 -25 1 -25 7 0 5 9 6 21 3 18 -6 19 -4 10 12
-7 15 -7 20 4 20 7 0 11 -6 8 -14 -3 -7 0 -13 7 -13 7 0 9 11 6 30 -2 16 0 30
5 30 4 0 5 7 2 17 -4 10 -2 14 5 9 7 -4 9 2 6 19 -3 20 -1 23 13 19 10 -3 1 5
-19 17 -37 22 -50 41 -25 37 7 -2 11 6 10 20 -2 12 2 22 9 22 6 0 8 3 5 6 -3
4 -2 15 3 25 8 13 6 20 -7 28 -10 6 -13 11 -7 11 5 0 15 -5 21 -11 7 -7 9 -3
6 15 -4 20 -8 24 -18 16 -10 -8 -15 -8 -21 1 -4 7 -3 9 3 6 6 -4 16 0 23 8 10
12 10 15 0 15 -8 0 -11 2 -8 5 3 3 13 2 22 -1 14 -5 15 -9 4 -15 -9 -6 -9 -9
-1 -9 20 0 24 18 7 34 -8 9 -21 13 -27 9 -9 -5 -9 -3 -1 8 15 20 12 95 -5 91
-7 -1 -10 2 -6 8 10 16 46 -12 39 -30 -12 -28 -11 -67 2 -67 9 0 10 5 3 18
-13 25 -11 33 4 20 10 -8 14 -7 14 4 0 8 -4 12 -8 10 -4 -3 -6 6 -5 20 1 18 5
24 16 20 11 -4 10 -1 -2 8 -13 10 -14 17 -6 25 13 13 5 27 -11 18 -5 -4 -8
-15 -6 -26 2 -12 0 -18 -6 -14 -6 3 -8 8 -5 11 3 3 1 14 -5 24 -7 15 -6 17 6
13 20 -8 19 6 -2 22 -17 13 -17 14 0 8 9 -3 17 -2 17 4 0 6 -6 12 -12 15 -10
3 -9 8 2 22 14 17 13 18 -2 12 -10 -3 -17 -3 -17 1 1 4 0 9 -1 12 -8 21 -6 39
3 37 7 -1 11 8 11 21 -1 17 2 20 11 12 9 -7 15 -7 19 -1 8 12 -30 25 -45 15
-8 -4 -9 -3 -5 4 4 7 13 12 19 12 7 0 13 9 14 21 1 15 -1 18 -10 10 -9 -7 -13
-5 -13 9 0 15 4 16 18 9 12 -6 24 -6 36 0 14 8 14 11 2 12 -8 1 -18 1 -22 0
-5 0 -8 4 -8 10 0 5 -5 7 -12 3 -7 -4 -8 -3 -4 5 4 6 12 8 18 5 6 -4 8 -1 6 7
-3 8 -11 13 -17 11 -18 -3 -13 6 9 18 15 8 18 7 15 -3 -3 -7 0 -21 8 -30 12
-17 13 -17 13 2 0 11 -4 17 -9 14 -5 -3 -7 0 -5 8 3 8 12 13 19 11 8 -1 1 9
-14 23 -16 14 -32 23 -37 20 -5 -3 -11 -1 -14 4 -4 5 4 8 17 7 12 -2 29 4 36
12 12 12 11 13 -10 8 l-24 -7 25 22 c15 13 18 20 8 16 -10 -3 -19 0 -22 9 -3
9 -1 12 4 9 6 -3 10 -2 10 3 0 5 -8 12 -18 14 -10 3 -19 12 -19 21 0 9 4 14 9
11 5 -3 6 -9 4 -13 -3 -3 4 -7 14 -7 10 0 17 3 14 7 -2 4 2 10 8 13 9 4 8 5
-2 4 -8 -1 -23 2 -33 7 -14 6 -15 10 -6 16 10 6 10 11 0 22 -9 12 -9 17 0 23
9 5 7 10 -7 15 -18 7 -18 8 1 8 17 1 18 3 5 12 -13 9 -13 10 0 6 17 -4 21 -26
8 -44 -6 -7 -3 -15 9 -22 16 -9 16 -12 3 -21 -18 -12 -1 -13 18 -1 10 6 10 10
-3 21 -21 17 -19 36 3 19 14 -11 13 -10 -2 9 -11 12 -16 22 -12 22 4 0 1 10
-5 22 -9 17 -8 24 5 34 15 10 15 12 1 18 -13 5 -14 10 -4 27 7 13 7 19 1 15
-7 -4 -10 4 -8 21 5 45 -12 72 -42 67 -15 -3 -24 -4 -22 -2 3 2 14 10 24 18
18 13 19 13 11 0 -5 -9 -5 -12 1 -7 5 5 9 12 9 15 0 4 4 13 9 20 5 8 4 18 -3
25 -13 13 -15 30 -2 22 5 -3 12 -1 16 4 3 6 -4 8 -15 6 -12 -2 -23 2 -27 10
-3 8 -10 12 -17 8 -6 -4 -6 0 2 9 8 10 10 26 6 42 -4 19 -2 28 10 32 16 6 23
25 9 23 -22 -4 -31 3 -35 25 -3 17 -1 23 8 19 7 -2 12 -10 10 -16 -1 -7 -1 -9
1 -4 3 4 9 4 15 1 5 -3 4 3 -4 15 -7 12 -16 21 -21 21 -4 0 -6 4 -3 9 3 5 -1
12 -10 15 -12 5 -15 2 -10 -11 6 -14 4 -15 -5 -6 -14 14 -3 34 15 27 8 -3 17
0 22 7 4 7 3 10 -2 6 -6 -3 -16 -2 -24 4 -12 7 -9 9 10 9 22 1 23 2 7 11 -9 5
-21 8 -26 4 -5 -3 -13 -1 -16 5 -4 6 -1 9 7 8 7 -2 12 4 10 12 -2 11 1 11 12
-3 12 -16 14 -16 20 -2 3 9 2 13 -3 10 -5 -3 -13 0 -16 6 -4 5 -13 8 -19 6 -7
-3 -13 1 -13 9 0 8 7 13 16 12 9 -2 16 4 16 12 1 8 6 14 13 12 7 -1 12 2 12 8
0 5 -7 10 -15 10 -13 0 -19 -12 -16 -32 0 -4 -6 -5 -15 -1 -11 4 -12 8 -4 13
9 6 9 13 -1 31 -8 13 -14 36 -14 51 0 15 -9 34 -20 43 -14 10 -15 14 -5 13 9
-2 14 3 12 15 -2 9 2 17 7 17 5 0 8 -12 5 -27 -4 -22 -2 -25 7 -13 9 12 10 11
4 -5 -5 -16 -4 -17 6 -8 9 9 9 16 1 26 -8 9 -8 17 -1 24 6 6 5 10 -6 11 -8 1
-22 3 -30 4 -8 1 -12 5 -9 10 3 5 14 6 24 3 10 -3 21 -1 25 4 4 7 -1 8 -11 4
-13 -5 -15 -3 -9 7 6 10 4 12 -8 7 -9 -3 -19 -1 -23 5 -4 7 -3 8 4 4 8 -5 12
0 12 13 0 12 -4 21 -8 21 -5 0 -9 7 -9 15 0 11 4 12 14 3 7 -6 16 -8 20 -4 3
3 1 6 -7 6 -9 0 -10 3 -1 14 9 11 6 13 -14 11 -14 -2 -23 1 -19 6 3 5 13 9 22
9 14 0 15 2 2 10 -9 5 -19 5 -27 -2 -9 -7 -13 -7 -13 1 0 10 13 15 33 12 10
-1 9 11 -3 29 -5 9 -5 19 2 27 7 9 6 14 -4 18 -18 7 -20 34 -4 54 8 11 8 13
-1 8 -7 -4 -16 0 -22 10 -9 15 -10 14 -7 -9 3 -15 7 -32 11 -38 3 -5 0 -7 -8
-4 -8 3 -14 13 -12 22 1 9 -4 28 -13 42 -14 22 -14 24 0 12 21 -17 42 6 26 28
-8 12 -9 12 -4 -2 3 -10 2 -18 -3 -18 -5 0 -11 9 -14 20 -3 13 0 20 8 20 8 0
16 4 19 8 6 11 -24 9 -44 -2 -12 -7 -13 -6 -3 4 10 11 10 17 0 28 -10 13 -9
14 10 4 27 -15 45 -15 20 -1 -9 6 -15 15 -11 21 4 6 -2 8 -17 4 -13 -3 -19 -3
-12 0 7 3 9 13 6 22 -4 15 -3 15 6 2 9 -12 10 -10 7 10 -3 14 -5 29 -5 33 -1
5 -7 5 -13 1 -10 -6 -10 -5 -1 7 6 8 12 18 13 22 2 13 -33 36 -44 30 -5 -4 -6
0 0 8 11 18 6 52 -10 61 -8 6 -8 8 1 8 6 0 15 -4 18 -10 3 -5 12 -10 18 -10 7
0 -3 10 -20 21 -18 12 -33 23 -33 26 0 2 3 2 8 0 4 -2 15 4 25 15 20 21 18 22
-17 8 -25 -9 -25 -8 -13 13 6 12 14 24 17 27 3 3 6 12 8 20 1 8 -7 3 -19 -12
-11 -16 -26 -28 -32 -28 -6 0 -2 7 9 15 10 8 15 15 10 15 -5 0 -2 8 5 17 12
15 12 16 -3 10 -18 -6 -32 5 -21 17 11 10 14 46 4 46 -11 0 -9 53 2 61 5 4 4
10 -2 13 -6 4 -11 3 -11 -3 0 -6 -9 -15 -20 -21 -14 -7 -20 -7 -20 0 0 5 8 10
18 10 15 1 15 2 -3 17 -16 12 -16 14 -3 10 10 -3 20 -2 23 3 3 5 -2 10 -12 12
-15 3 -15 4 1 21 17 16 16 17 -6 15 -14 -2 -23 2 -23 12 -1 8 -5 14 -10 13 -6
-1 -10 10 -10 23 0 13 1 24 2 24 8 0 31 -59 26 -64 -4 -3 -3 -6 0 -6 3 0 11
10 18 21 7 14 7 19 0 15 -13 -9 -33 28 -25 48 4 9 1 16 -6 16 -9 0 -9 4 -2 13
8 9 8 17 0 27 -8 12 -9 12 -4 -2 3 -10 1 -20 -5 -24 -7 -4 -7 -10 0 -18 8 -9
7 -13 -3 -13 -10 0 -12 10 -9 31 3 23 1 27 -6 16 -13 -19 -13 -13 -2 27 6 21
6 35 0 39 -5 3 -9 2 -8 -3 3 -18 -1 -33 -10 -33 -4 0 -6 12 -3 26 4 20 2 25
-8 19 -9 -5 -11 -4 -6 4 4 6 11 9 16 6 5 -3 12 0 16 7 4 7 4 10 0 6 -5 -4 -14
-1 -21 5 -11 10 -10 15 2 29 14 16 13 17 -13 12 -16 -3 -25 -2 -21 2 4 4 2 12
-3 19 -7 8 -5 12 5 12 8 0 11 -5 8 -10 -4 -6 -1 -7 7 -2 10 6 9 11 -5 21 -10
7 -22 11 -27 8 -5 -3 -7 0 -6 8 2 7 -2 12 -7 11 -6 -1 -12 8 -12 19 -2 20 -1
20 12 2 14 -18 14 -18 15 -1 0 10 5 15 10 12 8 -5 8 -11 1 -19 -11 -14 -5 -26
13 -26 6 0 5 4 -3 9 -10 6 -10 10 -1 16 17 11 -18 45 -38 37 -15 -5 -15 -4 -2
13 14 17 13 17 -10 10 l-25 -8 25 22 c21 18 21 20 4 12 -19 -9 -21 -7 -20 17
1 15 5 33 10 41 6 9 5 12 -2 7 -5 -3 -13 0 -16 6 -3 7 -3 1 -1 -14 2 -15 0
-30 -4 -33 -5 -2 -8 3 -8 13 0 61 -3 74 -18 68 -8 -3 -14 0 -12 7 1 7 -4 11
-12 9 -12 -3 -12 0 -1 12 12 15 7 21 -14 17 -5 -1 -4 5 4 13 10 13 10 16 -1
17 -8 1 -18 1 -23 0 -5 -1 -3 6 5 15 11 13 11 18 2 21 -7 3 -13 10 -13 16 1 7
10 1 21 -12 11 -13 23 -21 27 -17 4 4 -1 12 -11 17 -9 6 -17 17 -17 24 0 9 -9
15 -21 15 -15 0 -19 5 -15 15 3 9 -1 18 -8 21 -14 5 -16 28 -3 40 13 13 7 27
-6 16 -10 -8 -13 -5 -15 13 -1 19 2 23 16 19 14 -5 14 -4 2 4 -10 8 -18 8 -27
0 -7 -6 -13 -9 -14 -7 -7 37 -6 40 8 35 13 -5 14 -4 3 9 -7 8 -9 15 -5 15 5 0
1 8 -8 18 -10 10 -14 22 -11 25 9 9 -16 38 -26 32 -5 -3 -12 0 -16 6 -4 8 -3
9 4 5 7 -4 12 -2 12 3 0 6 -6 11 -14 11 -8 0 -17 7 -20 16 -10 25 -7 29 7 9
13 -17 14 -16 12 6 -1 19 -7 24 -28 23 -32 -1 -32 -1 -10 17 14 12 16 12 8 0
-5 -10 -4 -12 4 -7 6 4 9 12 5 17 -3 5 -10 7 -15 3 -6 -3 -8 5 -5 20 3 19 -2
29 -22 42 -14 10 -31 17 -38 17 -6 0 -11 7 -11 16 0 51 -4 72 -12 67 -12 -8
-22 20 -14 42 6 15 5 16 -13 2 -10 -8 -16 -11 -12 -6 4 4 3 19 -2 31 -6 15 -5
26 1 29 5 2 4 3 -3 2 -7 -2 -12 -10 -10 -17 3 -11 1 -11 -9 -2 -7 7 -12 26
-11 43 0 16 -4 30 -9 30 -6 0 -8 -4 -5 -8 3 -5 -1 -9 -9 -9 -8 0 -14 3 -13 6
0 3 -1 11 -2 16 -1 6 -3 17 -4 25 0 8 -6 14 -12 13 -7 -1 -10 6 -7 17 3 11 10
17 16 13 6 -3 7 -1 3 5 -3 6 -16 9 -27 7 -17 -4 -19 -2 -9 10 7 8 9 15 5 15
-4 0 -2 7 5 16 8 8 9 14 4 13 -20 -4 -35 2 -29 11 4 6 -1 7 -11 3 -13 -5 -15
-3 -9 7 5 8 1 18 -10 27 -11 7 -13 13 -7 13 7 0 12 4 12 10 0 12 -22 9 -32 -5
-5 -7 -8 -7 -9 0 -1 17 -7 39 -14 58 -6 14 -3 16 11 11 14 -4 15 -3 6 4 -8 5
-24 8 -36 7 -13 -2 -23 3 -23 9 0 7 6 13 13 13 7 0 10 -5 7 -11 -3 -6 -2 -7 2
-3 17 15 13 35 -6 30 -11 -3 -19 0 -19 6 0 7 5 9 12 5 7 -4 8 -3 4 4 -4 6 -13
9 -21 5 -8 -3 -15 0 -15 6 0 6 5 11 10 11 6 0 10 5 10 10 0 7 -6 7 -18 1 -14
-8 -18 -5 -19 12 -2 17 0 19 7 7 6 -9 10 -10 10 -3 0 21 -18 24 -30 6 -10 -16
-11 -16 -6 -1 3 10 -2 22 -12 28 -15 9 -14 10 5 5 12 -3 24 -1 28 4 4 7 -1 8
-11 4 -11 -4 -15 -3 -10 5 3 6 1 14 -5 18 -8 4 -9 3 -5 -4 4 -7 3 -12 -2 -12
-5 0 -15 14 -22 30 -7 17 -17 30 -22 30 -5 0 -7 4 -3 9 3 5 0 13 -6 17 -7 4
-9 3 -6 -4 5 -6 -1 -8 -14 -5 -21 6 -21 6 2 19 21 11 22 13 7 19 -10 4 -16 11
-13 15 9 14 -16 23 -28 11 -9 -9 -7 -11 8 -5 16 6 18 4 8 -6 -11 -11 -17 -10
-38 10 -14 13 -25 28 -25 33 0 5 9 -1 20 -14 16 -20 19 -21 20 -6 0 9 -4 17
-10 17 -5 0 -10 7 -10 15 0 14 -18 20 -49 16 -7 -2 -10 3 -6 9 4 6 13 9 20 6
7 -2 16 1 18 8 3 8 -1 13 -11 12 -9 0 -16 5 -14 12 1 8 -2 11 -9 6 -9 -5 -10
-2 -6 9 3 9 2 19 -4 22 -5 4 -8 1 -7 -6 2 -6 -2 -13 -8 -16 -7 -2 -10 6 -6 24
5 24 3 26 -10 15 -12 -10 -18 -10 -27 2 -9 11 -9 16 0 22 7 4 9 3 5 -4 -3 -6
-2 -14 4 -17 7 -4 10 3 7 20 -4 30 -23 46 -46 37 -14 -5 -14 -4 -2 11 8 10 11
20 7 24 -3 3 -6 0 -6 -7 0 -9 -5 -7 -15 6 -15 19 -15 19 -9 -1 5 -16 4 -17 -5
-5 -8 11 -7 18 4 26 14 10 14 12 0 18 -9 3 -13 2 -10 -4 3 -6 1 -10 -4 -10 -6
0 -11 6 -11 13 0 8 -4 7 -10 -3 -6 -9 -10 -10 -10 -3 0 6 4 15 10 18 6 4 2 15
-10 27 -11 12 -20 28 -20 35 0 7 -5 13 -11 13 -6 0 -1 -16 11 -35 12 -19 17
-35 11 -35 -6 0 -11 7 -11 15 0 8 -4 15 -10 15 -5 0 -10 7 -10 16 0 9 -6 14
-13 11 -8 -3 -14 1 -14 9 0 7 5 10 11 7 6 -3 6 0 -1 7 -10 11 -15 11 -30 -1
-17 -13 -17 -12 0 8 18 21 18 22 -5 34 -13 7 -30 12 -38 10 -10 -2 -8 3 6 16
11 10 18 17 15 16 -2 -2 -10 2 -18 8 -7 6 -13 9 -13 5 0 -3 -9 3 -20 14 -11
11 -20 25 -20 31 0 5 -4 7 -10 4 -5 -3 -10 -1 -10 4 0 6 5 11 12 11 6 0 8 3 5
6 -4 4 -13 1 -22 -6 -11 -9 -15 -9 -15 -1 0 7 -4 10 -8 7 -4 -2 -8 4 -8 14 0
10 5 16 10 13 5 -4 6 -1 2 6 -5 7 -14 10 -22 7 -8 -3 -14 -1 -14 5 0 6 -4 7
-10 4 -5 -3 -10 0 -10 8 0 10 8 14 23 11 12 -2 15 -1 7 2 -8 4 -23 14 -33 22
-14 13 -22 14 -36 5 -16 -10 -18 -8 -16 15 3 41 -3 48 -35 46 -17 -1 -28 2
-25 7 3 4 12 6 19 3 8 -3 16 -1 19 3 7 12 -34 10 -53 -1 -8 -5 -4 3 10 19 l25
28 -23 -12 c-13 -7 -26 -10 -30 -7 -3 3 0 6 7 6 7 0 9 5 6 10 -3 6 -1 10 6 10
7 0 10 2 7 5 -3 3 -17 1 -32 -5 -26 -9 -26 -9 -11 14 15 22 14 23 -7 22 -16
-1 -27 7 -35 27 -7 15 -20 30 -30 34 -10 4 -20 10 -23 15 -3 4 -17 9 -30 11
-15 2 -25 11 -25 20 0 9 -4 16 -9 16 -14 -1 -28 30 -20 43 4 6 3 8 -3 5 -6 -4
-16 0 -23 8 -7 8 -23 13 -36 11 -13 -3 -27 0 -30 6 -4 7 -2 8 4 4 22 -13 12
13 -10 28 -12 9 -18 16 -12 16 5 0 15 -5 22 -12 9 -9 12 -9 12 0 0 7 -4 12 -9
12 -21 0 -72 53 -66 69 5 13 4 13 -6 4 -10 -10 -8 -18 12 -40 13 -15 17 -22 8
-15 -9 6 -19 8 -23 4 -4 -4 -6 0 -4 8 2 8 -2 14 -9 15 -6 0 -15 4 -20 9 -5 5
-3 6 5 2 6 -4 12 -2 12 3 0 6 -6 11 -12 11 -9 0 -8 4 2 10 8 5 10 10 5 10 -6
0 -16 -5 -21 -10 -7 -7 -11 -6 -12 5 -1 8 -3 21 -4 28 -1 8 -7 14 -14 14 -7 0
-11 -4 -8 -9 3 -4 -5 -4 -18 1 -24 9 -27 39 -5 54 7 4 4 6 -8 5 -44 -3 -65 3
-65 18 0 8 -4 12 -10 9 -5 -3 -10 -2 -10 4 0 5 6 12 13 14 8 4 9 6 0 6 -6 1
-18 -6 -27 -14 -8 -8 -17 -11 -20 -6 -3 5 1 11 9 15 8 3 15 11 14 18 0 10 -2
10 -6 1 -2 -7 -9 -13 -14 -13 -6 0 -8 4 -5 9 3 4 -4 17 -16 27 -12 11 -18 14
-15 7 4 -6 3 -14 -2 -17 -5 -3 -12 5 -15 19 -5 18 -13 25 -31 25 -14 0 -25 4
-25 10 0 5 6 8 13 6 6 -1 9 -1 4 1 -4 3 -4 10 -1 16 5 8 2 8 -7 0 -20 -19 -32
-16 -26 8 3 12 3 18 0 15 -4 -3 -15 1 -25 11 -10 9 -18 13 -18 8 0 -4 -7 -2
-15 5 -9 7 -18 10 -22 6 -3 -3 -1 -6 5 -6 7 0 12 -5 12 -11 0 -8 -5 -8 -15 1
-8 7 -13 16 -10 20 7 11 -24 22 -38 13 -7 -4 -7 0 1 9 10 13 10 18 1 24 -8 4
-9 3 -5 -4 4 -7 2 -12 -3 -12 -6 0 -11 6 -11 14 0 10 -10 14 -30 14 -17 -1
-33 2 -37 5 -3 4 0 7 9 7 8 0 15 6 15 13 0 8 -6 14 -13 14 -7 0 -11 -3 -9 -7
2 -4 -2 -7 -9 -7 -8 0 -11 8 -8 21 4 21 4 21 -11 1 -14 -19 -16 -19 -22 -3 -4
10 -12 15 -19 11 -6 -4 -5 1 3 10 8 10 12 18 10 20 -39 22 -50 27 -44 18 3 -6
1 -11 -4 -11 -6 0 -11 5 -11 10 0 6 -8 18 -19 29 -18 18 -18 18 -30 0 -6 -11
-16 -19 -23 -19 -7 0 -3 6 8 14 10 8 15 18 11 22 -4 5 -12 2 -17 -6 -8 -12
-10 -11 -11 5 -1 11 -1 24 0 29 1 5 -9 2 -22 -7 -23 -15 -25 -15 -20 2 3 11
-2 21 -12 25 -9 3 -13 11 -9 17 5 8 3 9 -5 5 -9 -6 -8 -13 6 -29 18 -22 18
-22 -3 -4 -11 9 -23 14 -26 11 -4 -3 -9 4 -13 15 -3 12 -11 21 -17 21 -5 0 -7
7 -4 16 3 9 2 12 -5 9 -5 -4 -16 -2 -24 5 -10 8 -15 8 -21 -1 -5 -8 -3 -9 6
-4 9 6 11 4 5 -5 -5 -8 -4 -11 3 -6 16 9 26 -14 13 -27 -9 -9 -10 -7 -5 7 5
13 4 17 -3 13 -13 -8 -35 16 -31 34 2 8 -3 13 -11 11 -7 -1 -21 3 -30 10 -14
11 -14 11 -3 -4 10 -12 10 -18 1 -24 -8 -4 -9 -3 -5 5 4 6 0 14 -8 17 -9 3
-13 10 -10 15 3 5 1 9 -5 9 -5 0 -12 -6 -14 -12 -4 -8 -6 -7 -6 4 -1 9 5 18
12 21 6 3 2 4 -10 4 -12 -1 -20 -4 -18 -7 2 -3 -5 -6 -15 -6 -10 0 -16 4 -14
8 3 4 0 8 -6 8 -6 0 -8 5 -5 10 6 10 5 11 -31 15 -31 3 -46 15 -40 31 5 12 2
12 -17 3 -20 -11 -21 -11 -8 5 13 16 13 17 -5 14 -12 -2 -18 2 -16 10 1 8 -2
11 -7 7 -6 -3 -7 -13 -4 -22 4 -11 3 -14 -5 -9 -7 4 -12 14 -12 23 0 11 -7 14
-25 11 -14 -3 -28 -1 -32 5 -3 5 -2 7 4 4 5 -3 10 0 10 7 0 8 -8 11 -19 8 -10
-2 -15 -9 -11 -15 3 -6 1 -7 -6 -3 -6 4 -8 12 -5 18 9 14 -17 29 -40 22 -13
-4 -16 -3 -11 6 6 10 1 12 -19 8 -18 -4 -26 -1 -26 8 0 8 -4 14 -10 14 -5 0
-10 -5 -10 -12 0 -6 -3 -8 -6 -5 -4 4 -1 13 6 22 11 13 10 14 -2 10 -16 -6
-48 18 -48 36 0 5 -6 4 -14 -3 -8 -7 -11 -17 -8 -23 3 -5 -2 -4 -11 3 -9 8
-22 10 -28 6 -7 -4 -9 -3 -5 4 3 6 -3 16 -14 22 -15 8 -20 8 -20 -1 0 -7 -3
-9 -6 -6 -4 4 -2 12 4 20 8 10 6 13 -8 13 -10 0 -16 -4 -14 -8 3 -4 -2 -5 -10
-2 -9 3 -13 11 -9 18 4 6 -1 5 -10 -3 -18 -15 -24 -2 -6 16 7 7 4 10 -11 9
-11 0 -25 -8 -31 -16 -8 -11 -9 -8 -5 15 3 17 3 24 0 18 -3 -7 -15 -13 -26
-13 -24 0 -52 26 -42 41 4 8 1 8 -12 2 -29 -14 -69 -9 -88 10 -10 9 -12 17 -6
17 6 0 13 -6 16 -13 5 -15 39 -16 51 -2 5 4 2 5 -4 1 -7 -4 -13 -2 -13 4 0 6
-5 8 -10 5 -6 -4 -17 -2 -24 4 -8 7 -18 11 -22 10 -5 -1 -24 -1 -43 0 l-34 1
19 23 c19 22 19 22 -1 6 -12 -10 -32 -15 -48 -12 -22 3 -27 1 -21 -9 7 -12
-23 7 -36 23 -3 3 -15 11 -28 18 -12 7 -20 16 -17 22 4 5 1 9 -6 9 -6 0 -9 -8
-6 -19 4 -17 2 -18 -14 -8 -11 7 -17 19 -14 27 4 11 1 10 -8 -2 -8 -10 -17
-15 -20 -11 -4 3 -2 12 4 20 9 9 8 13 0 13 -6 0 -11 -4 -11 -10 0 -5 -9 -10
-19 -10 -11 0 -21 -5 -23 -12 -3 -9 -6 -9 -12 0 -4 7 -2 12 5 12 8 0 8 4 -1
15 -7 8 -18 15 -24 15 -6 0 -4 -5 4 -11 11 -8 9 -9 -10 -3 -14 4 -27 11 -28
15 -2 5 -13 14 -24 20 -15 8 -19 8 -14 0 4 -6 4 -11 -1 -12 -4 0 -18 -2 -30
-3 -18 -2 -20 0 -11 11 9 11 13 12 19 1 6 -8 9 -9 9 -2 0 6 -8 18 -17 25 -14
12 -16 12 -8 0 6 -11 4 -13 -9 -8 -10 4 -15 3 -11 -3 4 -7 -3 -9 -19 -6 -13 2
-27 -1 -30 -7 -3 -7 -3 -2 0 11 3 12 1 22 -5 22 -6 0 -11 -8 -12 -17 0 -15 -2
-15 -8 2 -5 11 -6 25 -3 30 3 6 2 7 -3 3 -4 -4 -13 -3 -20 2 -8 7 -12 5 -12
-5 0 -7 5 -13 10 -12 5 1 12 -5 14 -13 3 -10 2 -11 -4 -4 -4 6 -16 10 -25 9
-11 -2 -15 2 -11 13 4 9 2 13 -4 9 -6 -4 -13 -4 -16 0 -2 5 -2 2 0 -5 1 -8 -3
-12 -9 -10 -7 3 -13 11 -13 18 0 18 -32 21 -45 5 -11 -13 -44 -10 -36 4 2 3
-2 12 -10 19 -8 7 -14 9 -14 5 0 -5 -9 -9 -20 -10 -13 -1 -20 4 -20 15 0 14
-2 15 -9 2 -6 -8 -7 -18 -4 -24 3 -5 1 -6 -6 -2 -6 4 -9 12 -6 17 4 5 1 9 -5
9 -6 0 -8 5 -4 12 4 7 3 8 -4 4 -6 -4 -8 -14 -5 -23 6 -15 5 -15 -17 0 -18 12
-27 14 -37 5 -7 -6 -16 -8 -20 -4 -3 3 -1 6 5 6 7 0 12 8 11 18 0 10 -3 12 -6
4 -2 -6 -9 -10 -14 -6 -5 3 -21 8 -36 10 -24 5 -25 3 -14 -13 7 -10 -1 -2 -18
17 -19 20 -29 27 -25 16 6 -15 4 -17 -6 -11 -8 5 -11 4 -7 -1 3 -6 -4 -11 -15
-11 -20 -2 -20 -1 -2 19 18 21 17 21 -14 -1 -36 -25 -42 -24 -45 7 -1 19 -27
20 -27 0 0 -5 4 -6 10 -3 6 4 7 -1 3 -11 -6 -16 -7 -16 -19 1 -11 15 -16 16
-29 5 -13 -11 -16 -11 -13 0 2 7 -3 15 -11 18 -9 3 -11 0 -6 -9 6 -10 2 -9
-11 2 -26 22 -57 33 -48 16 4 -6 -3 -3 -15 7 -16 15 -20 16 -16 5 4 -10 0 -16
-9 -16 -8 0 -13 4 -10 9 8 13 -10 10 -25 -4 -11 -11 -13 -10 -8 3 3 10 -1 16
-9 16 -9 0 -13 -7 -9 -16 3 -9 -3 -7 -14 7 -20 23 -37 31 -25 10 5 -8 2 -9 -9
-5 -10 3 -17 2 -17 -2 0 -5 -7 -11 -15 -15 -13 -5 -13 -2 1 19 10 15 12 25 5
25 -6 0 -11 -5 -11 -11 0 -5 -5 -7 -12 -3 -6 4 -8 3 -4 -4 3 -6 1 -14 -5 -18
-7 -4 -9 -3 -5 4 6 10 -8 24 -29 28 -5 1 -19 5 -30 8 -15 5 -15 4 3 -5 12 -7
22 -17 22 -23 0 -6 -5 -5 -12 2 -7 7 -30 12 -52 12 -25 0 -36 3 -28 8 8 6 2 9
-18 9 -24 0 -28 -3 -16 -9 18 -10 13 -28 -7 -28 -7 0 -6 4 3 10 13 8 12 10 -2
10 -10 0 -18 5 -18 11 0 6 -9 9 -20 6 -10 -3 -21 -2 -23 2 -2 3 -2 0 -1 -6 2
-7 -3 -13 -11 -13 -8 0 -15 8 -16 18 0 14 -2 14 -9 -3 -5 -11 -9 -14 -9 -7 -1
6 -4 11 -8 11 -5 -1 -10 0 -13 1 -17 7 -48 5 -44 -2 4 -5 13 -7 22 -3 9 3 13
2 8 -2 -9 -10 -56 -12 -50 -2 2 4 -3 10 -12 13 -8 3 -12 2 -9 -3 3 -5 1 -12
-5 -16 -5 -3 -10 2 -10 11 0 16 -1 16 -16 -2 -8 -10 -13 -14 -10 -8 3 7 -1 15
-10 18 -9 4 -13 2 -8 -5 4 -7 1 -10 -7 -7 -8 3 -13 10 -12 15 1 5 -8 10 -20
10 -20 2 -20 1 -4 -8 9 -6 17 -15 17 -22 0 -7 -4 -6 -10 3 -5 8 -10 11 -10 5
0 -5 -7 -2 -14 8 -12 16 -14 16 -20 2 -3 -9 -10 -13 -16 -10 -5 3 -10 0 -10
-7 0 -10 -2 -10 -9 1 -6 9 -11 10 -15 2 -5 -7 -12 -7 -26 1 -10 7 -17 15 -14
19 2 4 -4 6 -13 4 -10 -1 -17 -9 -15 -19 3 -18 -9 -21 -25 -5 -8 8 -13 7 -18
-1 -6 -9 -12 -6 -22 11 -8 13 -12 16 -9 7 3 -10 0 -20 -6 -24 -6 -4 -9 -3 -5
2 3 5 -5 14 -19 21 -19 9 -26 8 -36 -5 -11 -13 -11 -14 1 -7 9 5 12 4 7 -3 -8
-14 -52 1 -48 17 1 6 -3 11 -9 11 -7 0 -9 -10 -5 -27z m86 2 c7 -9 8 -15 2
-15 -5 0 -12 7 -16 15 -3 8 -4 15 -2 15 2 0 9 -7 16 -15z m550 -20 c0 -8 -2
-15 -4 -15 -2 0 -6 7 -10 15 -3 8 -1 15 4 15 6 0 10 -7 10 -15z m177 -17 c-3
-8 -6 -5 -6 6 -1 11 2 17 5 13 3 -3 4 -12 1 -19z m-1157 -8 c0 -5 -2 -10 -4
-10 -3 0 -8 5 -11 10 -3 6 -1 10 4 10 6 0 11 -4 11 -10z m-265 -23 c6 -5 3 -7
-7 -3 -10 3 -20 1 -24 -5 -3 -6 -12 -8 -19 -5 -8 3 -16 1 -19 -5 -2 -5 -3 -4
-2 3 2 7 10 12 18 10 9 -1 19 5 22 14 4 9 10 13 14 8 4 -5 12 -13 17 -17z
m1679 -3 c3 -8 2 -12 -4 -9 -6 3 -10 10 -10 16 0 14 7 11 14 -7z m230 -30 c3
-8 2 -12 -4 -9 -6 3 -10 10 -10 16 0 14 7 11 14 -7z m64 -19 c-3 -3 -9 2 -12
12 -6 14 -5 15 5 6 7 -7 10 -15 7 -18z m176 -27 c-3 -4 -9 -8 -15 -8 -5 0 -9
4 -9 8 0 5 7 9 15 9 8 0 12 -4 9 -9z m-2664 -3 c0 -2 -10 -10 -22 -16 -21 -11
-22 -11 -9 4 13 16 31 23 31 12z m85 -13 c-3 -3 -11 0 -18 7 -9 10 -8 11 6 5
10 -3 15 -9 12 -12z m2665 -7 c14 -18 13 -19 -1 -8 -9 7 -19 10 -22 6 -4 -3
-7 -2 -7 4 0 9 12 26 14 21 1 -2 8 -12 16 -23z m270 -57 c0 -6 -3 -8 -7 -5 -3
4 -13 1 -22 -6 -14 -11 -14 -10 -2 6 15 20 31 22 31 5z m-3557 -93 c-3 -9 -8
-14 -10 -11 -3 3 -2 9 2 15 9 16 15 13 8 -4z m3877 -19 c0 -2 -7 -7 -16 -10
-8 -3 -12 -2 -9 4 6 10 25 14 25 6z m-4027 -41 c-7 -21 -12 -19 -10 4 0 11 5
18 9 15 4 -3 5 -11 1 -19z m4103 13 c3 -4 -1 -5 -10 -4 -8 1 -18 5 -22 8 -3 4
1 5 10 4 8 -1 18 -5 22 -8z m112 -37 c9 -5 4 -8 -16 -7 -17 1 -28 4 -25 9 6 9
25 9 41 -2z m-4351 -16 c0 -8 -4 -12 -9 -9 -5 3 -6 10 -3 15 9 13 12 11 12 -6z
m4457 -20 c-4 -8 -8 -15 -10 -15 -2 0 -4 7 -4 15 0 8 4 15 10 15 5 0 7 -7 4
-15z m197 -86 c10 -6 8 -8 -7 -7 -12 1 -21 10 -22 22 -1 15 1 17 7 7 5 -7 15
-17 22 -22z m-4871 7 c0 -2 -7 -7 -16 -10 -8 -3 -12 -2 -9 4 6 10 25 14 25 6z
m4997 -71 c0 -8 -4 -12 -9 -9 -5 3 -6 10 -3 15 9 13 12 11 12 -6z m-5167 -9
c-7 -7 -13 -7 -20 0 -6 6 -3 10 10 10 13 0 16 -4 10 -10z m-170 -66 c0 -5 -5
-10 -11 -10 -5 0 -7 5 -4 10 3 6 8 10 11 10 2 0 4 -4 4 -10z m-125 -80 c3 -5
1 -10 -4 -10 -6 0 -11 5 -11 10 0 6 2 10 4 10 3 0 8 -4 11 -10z m5846 -33 c-6
-8 -7 -18 -3 -22 4 -5 1 -5 -6 -1 -10 6 -10 11 -1 22 6 8 14 14 16 14 3 0 0
-6 -6 -13z m269 -169 c0 -5 -7 -3 -15 6 -8 8 -15 18 -15 22 0 3 7 1 15 -6 8
-7 15 -17 15 -22z m-6454 10 c4 -7 3 -8 -4 -4 -7 4 -12 2 -12 -5 0 -7 -3 -10
-6 -6 -6 5 3 27 11 27 2 0 7 -5 11 -12z m6514 -34 c0 -2 -7 -4 -15 -4 -8 0
-15 4 -15 10 0 5 7 7 15 4 8 -4 15 -8 15 -10z m-6660 -69 c14 -18 14 -19 -2
-7 -10 8 -23 10 -30 6 -9 -6 -9 -3 1 9 8 10 14 16 15 15 1 -2 8 -12 16 -23z
m-160 -89 c0 -2 -8 -10 -17 -17 -16 -13 -17 -12 -4 4 13 16 21 21 21 13z
m7075 -25 c-3 -3 -10 1 -15 9 -8 13 -10 13 -10 1 0 -8 -3 -12 -6 -8 -3 3 -3
11 1 17 5 8 11 8 21 -1 8 -6 12 -14 9 -18z m-7080 -11 c-3 -5 -12 -10 -18 -10
-7 0 -6 4 3 10 19 12 23 12 15 0z m7155 -50 c0 -5 -7 -7 -15 -4 -8 4 -15 8
-15 10 0 2 7 4 15 4 8 0 15 -4 15 -10z m55 -30 c3 -5 1 -10 -4 -10 -6 0 -11 5
-11 10 0 6 2 10 4 10 3 0 8 -4 11 -10z m109 -89 c4 -5 -3 -7 -14 -4 -23 6 -26
13 -6 13 8 0 17 -4 20 -9z m265 -239 c7 -13 6 -19 -2 -19 -7 0 -13 9 -13 19 0
10 1 18 3 18 1 0 7 -8 12 -18z m-8194 -92 c3 -5 1 -10 -4 -10 -6 0 -11 5 -11
10 0 6 2 10 4 10 3 0 8 -4 11 -10z m8347 -46 c9 -17 8 -18 -5 -2 -9 12 -17 14
-24 7 -6 -6 -10 -5 -10 5 0 20 27 13 39 -10z m12 -40 c3 -8 2 -12 -4 -9 -6 3
-10 10 -10 16 0 14 7 11 14 -7z m-8534 -58 c0 -2 -7 -7 -16 -10 -8 -3 -12 -2
-9 4 6 10 25 14 25 6z m-50 -36 c0 -5 -5 -10 -11 -10 -5 0 -7 5 -4 10 3 6 8
10 11 10 2 0 4 -4 4 -10z m8730 -14 c0 -3 -4 -8 -10 -11 -5 -3 -10 -1 -10 4 0
6 5 11 10 11 6 0 10 -2 10 -4z m54 -67 c-3 -5 -10 -7 -15 -3 -5 3 -7 10 -3 15
3 5 10 7 15 3 5 -3 7 -10 3 -15z m121 -139 c3 -5 1 -10 -4 -10 -6 0 -11 5 -11
10 0 6 2 10 4 10 3 0 8 -4 11 -10z m40 -20 c3 -5 1 -10 -4 -10 -6 0 -11 5 -11
10 0 6 2 10 4 10 3 0 8 -4 11 -10z m33 -49 c11 -7 10 -9 -3 -14 -9 -4 -14 -3
-10 2 3 5 -1 12 -7 14 -7 3 -8 6 -3 6 6 0 16 -3 23 -8z m-9228 -7 c0 -8 -19
-13 -24 -6 -3 5 1 9 9 9 8 0 15 -2 15 -3z m-103 -89 c0 -8 -4 -12 -9 -9 -5 3
-6 10 -3 15 9 13 12 11 12 -6z m9533 -121 c0 -2 -7 -4 -15 -4 -8 0 -15 4 -15
10 0 5 7 7 15 4 8 -4 15 -8 15 -10z m165 -234 c3 -5 1 -10 -4 -10 -6 0 -11 5
-11 10 0 6 2 10 4 10 3 0 8 -4 11 -10z m43 -85 c-3 -3 -9 2 -12 12 -6 14 -5
15 5 6 7 -7 10 -15 7 -18z m-10096 -39 c7 4 8 2 4 -4 -4 -6 -13 -9 -21 -6 -8
4 -12 11 -8 17 5 8 8 7 11 -1 2 -7 9 -9 14 -6z m-142 -186 c0 -5 -5 -10 -11
-10 -5 0 -7 5 -4 10 3 6 8 10 11 10 2 0 4 -4 4 -10z m10477 -125 c0 -20 -4
-19 -17 5 -8 15 -8 18 3 14 8 -3 14 -11 14 -19z m-10651 -207 c5 -7 3 -8 -6
-3 -10 6 -12 3 -7 -14 4 -18 3 -20 -9 -10 -11 9 -12 15 -3 25 14 17 16 17 25
2z m10883 -185 c2 -2 -3 -3 -11 -3 -9 0 -19 7 -22 16 -6 15 -4 15 11 3 10 -7
20 -15 22 -16z m81 -173 c0 -11 -47 -7 -58 5 -4 4 -2 6 3 2 6 -3 17 -2 25 3
15 9 30 4 30 -10z m14 -51 c-3 -5 -11 -9 -17 -9 -7 0 -6 4 3 10 14 9 7 14 -13
11 -5 -1 -6 3 -2 9 5 8 11 8 21 -1 7 -6 11 -15 8 -20z m-11444 -703 c0 -3 -4
-8 -10 -11 -5 -3 -10 -1 -10 4 0 6 5 11 10 11 6 0 10 -2 10 -4z m-24 -76 c0
-12 -4 -16 -9 -11 -5 5 -6 14 -3 20 10 15 12 14 12 -9z m-19 -45 c0 -8 -4 -15
-9 -15 -10 0 -11 14 -1 23 9 10 10 9 10 -8z m11863 -162 c0 -5 -5 -15 -10 -23
-7 -12 -9 -10 -7 8 1 19 17 33 17 15z m-11940 -37 c0 -3 -4 -8 -10 -11 -5 -3
-10 -1 -10 4 0 6 5 11 10 11 6 0 10 -2 10 -4z m-65 -286 c3 -5 1 -10 -4 -10
-6 0 -11 5 -11 10 0 6 2 10 4 10 3 0 8 -4 11 -10z m12078 -5 c4 -8 3 -16 -1
-19 -4 -3 -9 4 -9 15 -2 23 3 25 10 4z m-12099 -137 c-3 -4 -9 -8 -15 -8 -5 0
-9 4 -9 8 0 5 7 9 15 9 8 0 12 -4 9 -9z m-18 -63 c-1 -8 -6 -18 -11 -22 -4 -5
-5 -2 0 6 6 11 4 13 -10 7 -14 -5 -16 -4 -7 7 7 8 9 17 5 21 -4 4 0 4 9 1 9
-4 15 -13 14 -20z m-16 -109 c0 -3 -4 -8 -10 -11 -5 -3 -10 -1 -10 4 0 6 5 11
10 11 6 0 10 -2 10 -4z m12205 -6 c4 -6 12 -7 18 -4 7 4 6 1 -2 -7 -10 -11
-15 -11 -18 -1 -3 6 -9 10 -14 6 -5 -3 -9 0 -9 5 0 14 17 14 25 1z m9 -38 c3
-5 -1 -9 -9 -9 -8 0 -12 4 -9 9 3 4 7 8 9 8 2 0 6 -4 9 -8z m40 -362 c-6 -6
-10 -3 -10 10 0 13 4 16 10 10 7 -7 7 -13 0 -20z m54 -254 c-7 -8 -17 -12 -22
-9 -4 3 -2 9 5 14 22 13 31 11 17 -5z m27 -162 c-10 -8 -23 -14 -29 -14 -5 0
-1 6 10 14 17 13 18 15 2 21 -13 5 -15 10 -5 20 10 10 15 9 26 -8 13 -18 12
-22 -4 -33z m9 -66 c-3 -4 1 -8 8 -9 10 0 10 -2 1 -6 -7 -2 -13 -12 -13 -21 0
-13 2 -14 8 -4 6 8 9 1 9 -19 l0 -31 -14 26 c-8 15 -12 34 -11 44 2 10 -3 16
-10 14 -8 -1 -11 1 -8 6 3 5 12 9 20 9 8 0 13 -4 10 -9z m-6 -93 c-3 -3 -9 2
-12 12 -6 14 -5 15 5 6 7 -7 10 -15 7 -18z m20 -33 c-7 -10 -14 -19 -15 -21
-3 -4 2 28 6 47 1 2 6 0 11 -3 8 -5 7 -12 -2 -23z m-12471 11 c-4 -3 -1 -13 6
-22 11 -14 10 -14 -5 -2 -21 15 -23 31 -6 31 6 0 8 -3 5 -7z m12453 -117 c0
-3 -4 -8 -10 -11 -5 -3 -10 -1 -10 4 0 6 5 11 10 11 6 0 10 -2 10 -4z m44
-195 c3 -4 -6 -6 -19 -3 -14 2 -25 6 -25 8 0 8 39 4 44 -5z m-12494 -151 c0
-5 -5 -10 -11 -10 -5 0 -7 5 -4 10 3 6 8 10 11 10 2 0 4 -4 4 -10z m12430
-180 c0 -5 -2 -10 -4 -10 -3 0 -8 5 -11 10 -3 6 -1 10 4 10 6 0 11 -4 11 -10z
m-12399 -233 c-10 -9 -11 -8 -5 6 3 10 9 15 12 12 3 -3 0 -11 -7 -18z m15 -86
c-4 -5 -1 -12 4 -14 6 -3 5 -4 -2 -3 -15 3 -23 26 -8 26 6 0 9 -4 6 -9z
m12379 -81 c3 -5 1 -10 -4 -10 -6 0 -11 5 -11 10 0 6 2 10 4 10 3 0 8 -4 11
-10z m3 -39 c-7 -9 -13 -18 -15 -20 -1 -2 -1 5 0 16 0 11 7 20 14 20 10 0 10
-4 1 -16z m-12367 -14 c-10 -9 -11 -8 -5 6 3 10 9 15 12 12 3 -3 0 -11 -7 -18z
m12349 -27 c0 -5 -4 -10 -10 -10 -5 0 -10 5 -10 10 0 6 5 10 10 10 6 0 10 -4
10 -10z m-12330 -126 c0 -8 -19 -13 -24 -6 -3 5 1 9 9 9 8 0 15 -2 15 -3z m-4
-40 c-4 -9 -1 -24 6 -33 11 -15 10 -15 -5 0 -16 13 -15 49 0 49 3 0 2 -7 -1
-16z m12271 -83 c0 -11 -5 -18 -9 -15 -4 3 -5 11 -1 19 7 21 12 19 10 -4z
m-12202 -100 c3 -5 2 -12 -3 -15 -5 -3 -9 1 -9 9 0 17 3 19 12 6z m12183 -26
c-3 -3 -9 2 -12 12 -6 14 -5 15 5 6 7 -7 10 -15 7 -18z m-41 -147 c2 -17 0
-19 -7 -8 -5 8 -6 18 -4 22 8 12 10 10 11 -14z m-12097 -137 c0 -6 -4 -12 -8
-15 -5 -3 -9 1 -9 9 0 8 4 15 9 15 4 0 8 -4 8 -9z m17 -33 c0 -13 -1 -17 -4
-10 -3 6 -10 9 -16 5 -7 -4 -6 1 2 10 17 21 17 21 18 -5z m11990 -254 c0 -22
-33 -48 -43 -33 -5 8 -3 10 6 4 10 -6 12 -2 8 17 -3 17 0 24 12 25 9 1 17 -5
17 -13z m-47 -4 c0 -5 -2 -10 -4 -10 -3 0 -8 5 -11 10 -3 6 -1 10 4 10 6 0 11
-4 11 -10z m-20 -84 c0 -2 -7 -7 -16 -10 -8 -3 -12 -2 -9 4 6 10 25 14 25 6z
m-60 -206 c0 -5 -4 -10 -10 -10 -5 0 -10 5 -10 10 0 6 5 10 10 10 6 0 10 -4
10 -10z m-3 -57 c0 -20 -5 -16 -23 20 -16 32 -16 32 3 12 11 -11 20 -26 20
-32z m-32 -3 c3 -6 -1 -7 -9 -4 -18 7 -21 14 -7 14 6 0 13 -4 16 -10z m-43
-193 c-7 -8 -8 -17 -4 -22 4 -4 -3 -2 -15 4 -27 14 -31 23 -5 14 15 -6 16 -5
2 13 -14 18 -14 18 3 5 18 -14 23 -3 7 17 -5 7 -2 6 7 -2 13 -12 14 -18 5 -29z
m-2 -47 c0 -5 -7 -7 -15 -4 -8 4 -15 8 -15 10 0 2 7 4 15 4 8 0 15 -4 15 -10z
m-11515 -21 c-3 -4 -12 -6 -20 -3 -8 4 -13 10 -10 15 3 4 12 6 20 3 8 -4 13
-10 10 -15z m11446 -62 c-10 -9 -11 -8 -5 6 3 10 9 15 12 12 3 -3 0 -11 -7
-18z m-11379 -64 c-6 -2 -9 -10 -6 -15 4 -7 2 -8 -5 -4 -13 9 -5 26 12 25 9 0
8 -2 -1 -6z m97 -184 c-15 -9 -32 -2 -24 11 3 5 13 6 21 3 12 -4 13 -8 3 -14z
m11088 -224 c0 -10 -6 -14 -14 -10 -8 3 -18 5 -21 6 -4 0 2 4 13 9 11 5 20 9
21 9 0 1 1 -6 1 -14z m-10977 -5 c0 -5 -5 -10 -11 -10 -5 0 -7 5 -4 10 3 6 8
10 11 10 2 0 4 -4 4 -10z m53 -65 c-3 -9 -8 -14 -10 -11 -3 3 -2 9 2 15 9 16
15 13 8 -4z m27 -70 c7 -9 8 -15 2 -15 -5 0 -12 7 -16 15 -3 8 -4 15 -2 15 2
0 9 -7 16 -15z m20 -32 c-1 -18 -18 -35 -24 -24 -4 6 -4 16 -1 21 7 12 25 13
25 3z m75 -113 c-3 -5 -14 -10 -23 -10 -15 0 -15 2 -2 10 20 13 33 13 25 0z
m10549 -135 c-8 -19 -31 -26 -31 -10 0 8 4 13 8 12 4 -1 7 1 8 6 3 21 0 27
-11 21 -7 -5 -8 -3 -3 6 6 10 11 9 21 -4 7 -10 10 -24 8 -31z m-207 -311 c-3
-3 -12 -4 -19 -1 -8 3 -5 6 6 6 11 1 17 -2 13 -5z m-58 -87 c9 3 6 -2 -7 -11
-12 -10 -20 -21 -17 -26 8 -13 -19 -30 -34 -21 -9 6 -10 11 -2 15 6 4 11 2 11
-4 0 -6 4 -9 10 -5 5 3 7 12 3 20 -3 8 0 15 7 15 10 0 9 4 -1 18 -11 14 -11
15 0 5 7 -6 21 -9 30 -6z m-58 -82 c0 -5 -5 -11 -13 -13 -10 -3 -10 -1 1 6 11
8 10 11 -5 15 -16 5 -16 6 -1 4 10 -1 18 -6 18 -12z m-9794 -31 c-3 -3 -12 -4
-19 -1 -8 3 -5 6 6 6 11 1 17 -2 13 -5z m83 -110 c0 -8 -19 -13 -24 -6 -3 5 1
9 9 9 8 0 15 -2 15 -3z m70 -114 c0 -5 -5 -10 -11 -10 -5 0 -7 5 -4 10 3 6 8
10 11 10 2 0 4 -4 4 -10z m37 -16 c-3 -3 -12 -4 -19 -1 -8 3 -5 6 6 6 11 1 17
-2 13 -5z m8 -24 c3 -6 -1 -7 -9 -4 -18 7 -21 14 -7 14 6 0 13 -4 16 -10z m28
-47 c-4 -10 -2 -14 5 -9 6 3 14 1 18 -5 4 -8 3 -9 -4 -5 -7 4 -12 2 -12 -3 0
-6 -4 -11 -9 -11 -6 0 -8 36 -2 48 5 10 9 -2 4 -15z m9099 -256 c-7 -8 -9 -16
-6 -19 2 -3 -2 -8 -11 -11 -8 -4 -15 -2 -15 4 0 6 -4 7 -10 4 -6 -3 -7 1 -3
10 4 12 8 13 13 4 6 -8 11 -6 19 8 5 11 9 23 7 25 -1 3 2 2 7 -3 7 -5 6 -13
-1 -22z m-97 -67 c-6 -9 8 -14 28 -11 14 2 7 -7 -17 -23 -18 -11 -27 -13 -32
-4 -5 7 -3 8 5 3 9 -5 12 -1 11 11 -3 25 -1 34 6 34 3 0 2 -4 -1 -10z m-8657
-25 c-3 -3 -9 2 -12 12 -6 14 -5 15 5 6 7 -7 10 -15 7 -18z m8627 5 c-3 -5
-12 -10 -18 -10 -7 0 -6 4 3 10 19 12 23 12 15 0z m-8 -35 c0 -8 -4 -15 -9
-15 -10 0 -11 14 -1 23 9 10 10 9 10 -8z m-8422 -164 c-7 -12 35 -42 48 -34 6
3 7 1 3 -5 -4 -7 -2 -12 5 -12 10 0 10 -3 0 -12 -10 -11 -17 -7 -37 17 -13 17
-29 29 -34 28 -5 -2 -7 4 -4 12 4 8 10 15 16 15 5 0 7 -4 3 -9z m8257 2 c-6
-2 -10 -9 -7 -13 3 -5 1 -11 -4 -14 -7 -5 -8 11 -2 32 1 1 7 2 14 1 9 0 9 -2
-1 -6z m-8117 -123 c3 -5 1 -10 -4 -10 -6 0 -11 5 -11 10 0 6 2 10 4 10 3 0 8
-4 11 -10z m7825 -100 c0 -5 -5 -10 -11 -10 -5 0 -7 5 -4 10 3 6 8 10 11 10 2
0 4 -4 4 -10z m-7495 -160 c3 -6 -1 -7 -9 -4 -18 7 -21 14 -7 14 6 0 13 -4 16
-10z m-5 -32 c0 -6 -6 -5 -15 2 -8 7 -15 14 -15 16 0 2 7 1 15 -2 8 -4 15 -11
15 -16z m7190 -73 c0 -12 -19 -12 -23 0 -4 9 -1 12 9 8 7 -3 14 -7 14 -8z
m-297 -179 c3 -8 0 -19 -7 -26 -10 -8 -15 -7 -19 4 -4 10 -1 13 9 9 10 -4 12
0 8 11 -3 9 -4 16 -1 16 3 0 7 -6 10 -14z m-96 -68 c2 -17 0 -19 -7 -8 -5 8
-6 18 -4 22 8 12 10 10 11 -14z m-6242 -19 c-4 -5 -12 -9 -18 -8 -9 0 -8 2 1
6 6 2 9 10 6 15 -4 7 -2 8 5 4 6 -4 9 -12 6 -17z m6200 -8 c3 -5 1 -12 -5 -16
-5 -3 -10 1 -10 9 0 18 6 21 15 7z m-6194 -24 c-10 -9 -11 -8 -5 6 3 10 9 15
12 12 3 -3 0 -11 -7 -18z m5999 -92 c0 -8 -2 -15 -4 -15 -2 0 -6 7 -10 15 -3
8 -1 15 4 15 6 0 10 -7 10 -15z m-75 -45 c3 -6 -1 -7 -9 -4 -18 7 -21 14 -7
14 6 0 13 -4 16 -10z m-86 -43 c8 -10 7 -14 -2 -14 -8 0 -14 6 -14 14 0 7 1
13 2 13 2 0 8 -6 14 -13z m-29 -1 c0 -2 -7 -7 -16 -10 -8 -3 -12 -2 -9 4 6 10
25 14 25 6z m-5250 -60 c0 -2 -8 -10 -17 -17 -16 -13 -17 -12 -4 4 13 16 21
21 21 13z m35 -26 c3 -6 -1 -7 -9 -4 -18 7 -21 14 -7 14 6 0 13 -4 16 -10z
m4930 -30 c-3 -5 -12 -10 -18 -10 -7 0 -6 4 3 10 19 12 23 12 15 0z m-4813
-39 c8 11 9 11 6 1 -4 -16 -22 -18 -25 -2 -1 7 0 6 4 -1 4 -8 8 -7 15 2z
m4761 -10 c-10 -9 -23 -22 -30 -30 -10 -11 -12 -10 -10 7 0 11 4 20 7 20 18
-2 30 3 26 10 -3 5 2 9 10 9 12 0 11 -3 -3 -16z m-4670 -35 c4 -10 1 -13 -8
-9 -8 3 -12 9 -9 14 7 12 11 11 17 -5z m4535 -11 c-3 -3 -9 2 -12 12 -6 14 -5
15 5 6 7 -7 10 -15 7 -18z m-4498 -5 c0 -5 -2 -10 -4 -10 -3 0 -8 5 -11 10 -3
6 -1 10 4 10 6 0 11 -4 11 -10z m24 -16 c3 -8 2 -12 -4 -9 -6 3 -10 10 -10 16
0 14 7 11 14 -7z m4320 -50 c3 -8 2 -12 -4 -9 -6 3 -10 10 -10 16 0 14 7 11
14 -7z m-4102 -33 c8 11 9 11 6 1 -4 -16 -22 -18 -25 -2 -1 7 0 6 4 -1 4 -8 8
-7 15 2z m3998 -2 c0 -15 -18 -19 -23 -6 -3 8 1 14 9 14 8 0 14 -4 14 -8z
m-236 -91 c-3 -4 -9 -8 -15 -8 -5 0 -9 4 -9 8 0 5 7 9 15 9 8 0 12 -4 9 -9z
m-104 -8 c0 -5 -2 -10 -4 -10 -3 0 -8 5 -11 10 -3 6 -1 10 4 10 6 0 11 -4 11
-10z m-14 -22 c4 -7 4 -10 -1 -6 -4 4 -14 3 -22 -4 -11 -8 -12 -7 -7 6 7 19
20 21 30 4z m-3084 -68 c5 0 6 5 3 10 -3 6 -1 10 4 10 15 0 14 -15 -3 -29 -12
-10 -18 -6 -31 21 -14 31 -14 32 1 11 9 -13 21 -23 26 -23z m2964 23 c-10 -10
-46 -14 -46 -5 0 4 12 9 27 10 14 1 23 -1 19 -5z m-106 -17 c0 -3 -4 -8 -10
-11 -5 -3 -10 -1 -10 4 0 6 5 11 10 11 6 0 10 -2 10 -4z m-2599 -53 c-12 -20
-14 -14 -5 12 4 9 9 14 11 11 3 -2 0 -13 -6 -23z m84 -3 c-14 -15 -21 -17 -32
-9 -18 15 -16 19 7 14 11 -2 22 0 25 6 4 5 9 9 12 9 3 0 -2 -9 -12 -20z m2335
0 c0 -4 -7 -7 -15 -6 -23 3 -26 12 -5 13 11 1 20 -2 20 -7z m-2225 -10 c3 -6
-1 -7 -9 -4 -18 7 -21 14 -7 14 6 0 13 -4 16 -10z m1985 -4 c0 -2 -7 -7 -16
-10 -8 -3 -12 -2 -9 4 6 10 25 14 25 6z m100 0 c0 -2 -7 -7 -16 -10 -8 -3 -12
-2 -9 4 6 10 25 14 25 6z m-60 -28 c0 -4 -3 -8 -7 -9 -5 0 -16 -2 -25 -4 -10
-2 -15 2 -11 10 5 14 43 17 43 3z m-1625 -38 c-3 -5 -12 -10 -18 -10 -7 0 -6
4 3 10 19 12 23 12 15 0z m1305 -4 c0 -6 5 -4 10 4 6 9 10 10 10 3 0 -19 -16
-23 -35 -9 -15 11 -16 13 -1 13 9 0 16 -5 16 -11z m50 4 c0 -5 -2 -10 -4 -10
-3 0 -8 5 -11 10 -3 6 -1 10 4 10 6 0 11 -4 11 -10z m33 -4 c4 -10 1 -13 -9
-9 -7 3 -14 9 -14 14 0 14 17 10 23 -5z m-970 -21 c-3 -9 -8 -14 -10 -11 -3 3
-2 9 2 15 9 16 15 13 8 -4z m458 6 c-7 -5 -17 -15 -22 -22 -6 -10 -8 -8 -7 7
1 12 10 21 22 22 15 1 17 -1 7 -7z m-291 -11 c0 -5 -4 -10 -10 -10 -5 0 -10 5
-10 10 0 6 5 10 10 10 6 0 10 -4 10 -10z m103 -3 c7 3 8 2 4 -2 -14 -16 -36
-14 -29 3 4 10 7 12 10 4 2 -7 9 -9 15 -5z"/>
<path d="M7395 13920 c-3 -5 -1 -10 4 -10 6 0 11 5 11 10 0 6 -2 10 -4 10 -3
0 -8 -4 -11 -10z"/>
<path d="M7420 13921 c0 -6 4 -13 10 -16 6 -3 7 1 4 9 -7 18 -14 21 -14 7z"/>
<path d="M7074 13904 c-18 -14 -18 -15 4 -4 12 6 22 13 22 15 0 8 -5 6 -26
-11z"/>
<path d="M7204 13908 c10 -6 22 -6 26 -2 5 5 -3 10 -18 11 -22 1 -24 0 -8 -9z"/>
<path d="M6976 13895 c4 -8 8 -15 10 -15 2 0 4 7 4 15 0 8 -4 15 -10 15 -5 0
-7 -7 -4 -15z"/>
<path d="M8190 13900 c0 -5 5 -10 11 -10 5 0 7 5 4 10 -3 6 -8 10 -11 10 -2 0
-4 -4 -4 -10z"/>
<path d="M6712 13877 c10 -8 14 -18 10 -22 -4 -4 3 -3 14 3 12 6 25 8 30 4 5
-4 2 1 -5 11 -14 18 -26 24 -16 7 8 -13 -1 -13 -28 1 -20 9 -20 9 -5 -4z"/>
<path d="M8344 13858 c-4 -7 -3 -8 5 -4 6 4 17 3 24 -3 8 -6 18 -6 27 -1 8 6
11 10 5 11 -5 0 -20 2 -32 5 -12 2 -25 -1 -29 -8z"/>
<path d="M8461 13834 c0 -11 3 -14 6 -6 3 7 2 16 -1 19 -3 4 -6 -2 -5 -13z"/>
<path d="M6383 13815 c0 -8 4 -12 9 -9 5 3 6 10 3 15 -9 13 -12 11 -12 -6z"/>
<path d="M5967 13723 c-4 -3 -7 -11 -7 -17 0 -6 5 -5 12 2 6 6 9 14 7 17 -3 3
-9 2 -12 -2z"/>
<path d="M9030 13719 c0 -5 5 -7 10 -4 6 3 10 8 10 11 0 2 -4 4 -10 4 -5 0
-10 -5 -10 -11z"/>
<path d="M9220 13686 c0 -2 8 -10 18 -17 15 -13 16 -12 3 4 -13 16 -21 21 -21
13z"/>
<path d="M9370 13640 c0 -5 5 -10 11 -10 5 0 7 5 4 10 -3 6 -8 10 -11 10 -2 0
-4 -4 -4 -10z"/>
<path d="M9406 13611 c-4 -5 -2 -12 3 -15 5 -4 12 -2 15 3 4 5 2 12 -3 15 -5
4 -12 2 -15 -3z"/>
<path d="M5551 13594 c0 -11 3 -14 6 -6 3 7 2 16 -1 19 -3 4 -6 -2 -5 -13z"/>
<path d="M9446 13598 c3 -5 10 -6 15 -3 13 9 11 12 -6 12 -8 0 -12 -4 -9 -9z"/>
<path d="M5377 13543 c-4 -3 -7 -11 -7 -17 0 -6 5 -5 12 2 6 6 9 14 7 17 -3 3
-9 2 -12 -2z"/>
<path d="M5211 13476 c-10 -11 -9 -14 1 -12 14 2 23 15 15 22 -2 2 -10 -2 -16
-10z"/>
<path d="M10290 13246 c0 -2 7 -7 16 -10 8 -3 12 -2 9 4 -6 10 -25 14 -25 6z"/>
<path d="M4426 13098 c3 -5 10 -6 15 -3 13 9 11 12 -6 12 -8 0 -12 -4 -9 -9z"/>
<path d="M10823 12925 c-3 -9 -3 -18 -1 -21 3 -3 8 4 11 16 6 23 -1 27 -10 5z"/>
<path d="M4155 12920 c-3 -5 -1 -10 4 -10 6 0 11 5 11 10 0 6 -2 10 -4 10 -3
0 -8 -4 -11 -10z"/>
<path d="M10899 12873 c-13 -16 -12 -17 4 -4 9 7 17 15 17 17 0 8 -8 3 -21
-13z"/>
<path d="M3887 12725 c3 -8 9 -12 14 -9 12 7 11 11 -5 17 -10 4 -13 1 -9 -8z"/>
<path d="M11320 12550 c-9 -6 -10 -10 -3 -10 6 0 15 5 18 10 8 12 4 12 -15 0z"/>
<path d="M3576 12478 c3 -5 10 -6 15 -3 13 9 11 12 -6 12 -8 0 -12 -4 -9 -9z"/>
<path d="M11518 12383 c6 -3 10 -9 6 -14 -8 -14 2 -11 14 4 8 10 6 13 -11 14
-12 0 -16 -1 -9 -4z"/>
<path d="M11596 12322 c-3 -5 1 -9 9 -9 8 0 12 4 9 9 -3 4 -7 8 -9 8 -2 0 -6
-4 -9 -8z"/>
<path d="M11626 12284 c-8 -21 -8 -21 8 -21 8 0 11 8 8 19 -5 22 -8 23 -16 2z"/>
<path d="M11887 12031 c-4 -17 -3 -21 5 -13 5 5 8 16 6 23 -3 8 -7 3 -11 -10z"/>
<path d="M2630 11499 c0 -5 5 -7 10 -4 6 3 10 8 10 11 0 2 -4 4 -10 4 -5 0
-10 -5 -10 -11z"/>
<path d="M12693 11012 c1 -14 5 -18 11 -12 7 7 6 14 -1 21 -9 9 -12 7 -10 -9z"/>
<path d="M2213 10904 c-5 -13 -7 -13 -14 -2 -6 9 -9 9 -9 1 0 -19 20 -26 26
-9 3 9 11 13 17 9 6 -3 7 -1 3 5 -10 16 -15 15 -23 -4z"/>
<path d="M2187 10865 c3 -8 9 -12 14 -9 12 7 11 11 -5 17 -10 4 -13 1 -9 -8z"/>
<path d="M12800 10825 c0 -2 6 -8 13 -14 10 -8 14 -7 14 2 0 8 -6 14 -14 14
-7 0 -13 -1 -13 -2z"/>
<path d="M12815 10780 c3 -5 8 -10 11 -10 2 0 4 5 4 10 0 6 -5 10 -11 10 -5 0
-7 -4 -4 -10z"/>
<path d="M12855 10740 c-3 -5 -1 -10 4 -10 6 0 11 5 11 10 0 6 -2 10 -4 10 -3
0 -8 -4 -11 -10z"/>
<path d="M12943 10568 c2 -12 10 -24 18 -26 12 -3 12 -2 0 6 -7 6 -9 11 -3 13
6 2 4 9 -4 17 -12 11 -13 9 -11 -10z"/>
<path d="M13150 10160 c-9 -6 -10 -10 -3 -10 6 0 15 5 18 10 8 12 4 12 -15 0z"/>
<path d="M1820 10139 c0 -5 5 -7 10 -4 6 3 10 8 10 11 0 2 -4 4 -10 4 -5 0
-10 -5 -10 -11z"/>
<path d="M13161 10141 c-9 -6 -10 -11 -2 -15 6 -4 9 -11 7 -15 -3 -4 1 -8 8
-8 7 0 13 6 13 13 0 7 -5 10 -10 7 -6 -4 -8 0 -4 10 7 19 7 20 -12 8z"/>
<path d="M1779 10045 c0 -5 -2 -18 -4 -27 -2 -10 2 -21 8 -25 7 -3 9 -3 5 2
-4 4 -4 13 2 19 5 7 5 17 0 26 -6 8 -10 11 -11 5z"/>
<path d="M13213 10006 c0 -7 8 -18 17 -24 16 -9 16 -8 6 14 -12 26 -23 31 -23
10z"/>
<path d="M13227 9959 c7 -7 15 -10 18 -7 3 3 -2 9 -12 12 -14 6 -15 5 -6 -5z"/>
<path d="M13491 9274 c0 -11 3 -14 6 -6 3 7 2 16 -1 19 -3 4 -6 -2 -5 -13z"/>
<path d="M13493 9223 c4 -3 1 -13 -6 -22 -11 -14 -10 -14 5 -2 16 12 16 31 1
31 -4 0 -3 -3 0 -7z"/>
<path d="M1476 9171 c-3 -5 1 -14 8 -20 10 -9 16 -9 21 -1 4 6 1 9 -7 8 -7 -2
-12 3 -10 10 2 14 -4 16 -12 3z"/>
<path d="M13536 9078 c3 -5 10 -6 15 -3 13 9 11 12 -6 12 -8 0 -12 -4 -9 -9z"/>
<path d="M1460 9073 c5 -2 8 -9 5 -13 -3 -5 -1 -11 4 -14 5 -4 8 2 7 11 -2 9
-8 18 -15 19 -6 1 -7 0 -1 -3z"/>
<path d="M13566 8997 c3 -10 9 -15 12 -12 3 3 0 11 -7 18 -10 9 -11 8 -5 -6z"/>
<path d="M1420 8930 c-9 -6 -10 -10 -3 -10 6 0 15 5 18 10 8 12 4 12 -15 0z"/>
<path d="M1399 8873 c-13 -16 -12 -17 4 -4 16 13 21 21 13 21 -2 0 -10 -8 -17
-17z"/>
<path d="M1346 8762 c-3 -5 1 -9 9 -9 8 0 15 4 15 9 0 4 -4 8 -9 8 -6 0 -12
-4 -15 -8z"/>
<path d="M1354 8728 c-4 -6 -3 -8 4 -4 6 3 13 2 17 -4 3 -5 -2 -10 -12 -10
-15 0 -16 -2 -3 -10 21 -14 26 -12 27 9 2 22 -23 36 -33 19z"/>
<path d="M1316 8567 c3 -10 9 -15 12 -12 3 3 0 11 -7 18 -10 9 -11 8 -5 -6z"/>
<path d="M1325 8437 c4 -22 3 -27 -7 -21 -10 6 -10 4 1 -9 17 -21 34 -12 22
11 -4 9 -11 24 -15 32 -3 8 -4 2 -1 -13z"/>
<path d="M1310 8383 c0 -7 5 -13 10 -13 6 0 10 -4 10 -10 0 -5 -5 -9 -11 -7
-6 1 -13 -4 -14 -11 -2 -7 -1 -8 2 -2 3 8 9 8 18 0 22 -19 26 6 5 31 -11 13
-19 18 -20 12z"/>
<path d="M13673 8307 c0 -15 6 -32 13 -38 10 -8 12 -6 9 10 -2 11 -8 28 -13
37 -8 14 -9 12 -9 -9z"/>
<path d="M1256 8292 c-2 -4 -1 -14 4 -22 7 -11 9 -9 7 8 -1 24 -3 26 -11 14z"/>
<path d="M1244 8219 c-4 -7 -3 -9 4 -5 6 3 14 1 18 -5 3 -6 0 -15 -7 -20 -10
-6 -11 -9 -1 -9 6 0 15 -1 19 -2 3 -2 7 7 8 19 1 13 -1 21 -3 18 -3 -3 -11 0
-18 6 -8 7 -14 6 -20 -2z"/>
<path d="M1235 8020 c3 -5 8 -10 11 -10 2 0 4 5 4 10 0 6 -5 10 -11 10 -5 0
-7 -4 -4 -10z"/>
<path d="M13735 7960 c3 -5 8 -10 11 -10 2 0 4 5 4 10 0 6 -5 10 -11 10 -5 0
-7 -4 -4 -10z"/>
<path d="M13737 7925 c-4 -8 -3 -16 1 -19 4 -3 9 4 9 15 2 23 -3 25 -10 4z"/>
<path d="M1264 7916 c-8 -8 -7 -14 5 -22 12 -9 13 -15 4 -26 -13 -15 1 -48 14
-34 4 5 2 11 -5 13 -10 4 -10 8 -1 19 9 11 9 17 0 28 -9 11 -9 15 1 18 7 3 8
7 3 10 -6 3 -15 1 -21 -6z"/>
<path d="M1245 7880 c-3 -5 -1 -10 4 -10 6 0 11 5 11 10 0 6 -2 10 -4 10 -3 0
-8 -4 -11 -10z"/>
<path d="M1250 7822 c0 -7 5 -12 11 -12 5 0 8 -3 5 -8 -2 -4 2 -18 11 -32 9
-17 12 -18 8 -5 -4 11 -8 26 -9 33 -3 18 -26 40 -26 24z"/>
<path d="M13772 7800 c0 -14 2 -19 5 -12 2 6 2 18 0 25 -3 6 -5 1 -5 -13z"/>
<path d="M13787 7759 c7 -7 15 -10 18 -7 3 3 -2 9 -12 12 -14 6 -15 5 -6 -5z"/>
<path d="M1244 7698 c-4 -7 -3 -8 5 -4 6 4 14 0 17 -8 3 -9 10 -16 15 -16 15
0 10 15 -11 27 -14 9 -21 10 -26 1z"/>
<path d="M13799 7673 c-13 -16 -12 -17 4 -4 9 7 17 15 17 17 0 8 -8 3 -21 -13z"/>
<path d="M13790 7619 c0 -5 5 -7 10 -4 6 3 10 8 10 11 0 2 -4 4 -10 4 -5 0
-10 -5 -10 -11z"/>
<path d="M1236 7578 c3 -5 9 -7 12 -4 3 3 12 0 21 -6 13 -10 14 -10 4 2 -15
16 -46 23 -37 8z"/>
<path d="M1266 7535 c-3 -9 -2 -24 2 -32 8 -13 10 -13 16 2 3 9 2 24 -2 32 -8
13 -10 13 -16 -2z"/>
<path d="M1262 7450 c7 -11 16 -20 20 -20 15 0 8 15 -12 28 -19 12 -20 11 -8
-8z"/>
<path d="M1236 7442 c-3 -5 1 -9 9 -9 8 0 12 4 9 9 -3 4 -7 8 -9 8 -2 0 -6 -4
-9 -8z"/>
<path d="M1265 7400 c6 -30 16 -40 12 -12 -2 12 -6 24 -10 28 -3 4 -4 -4 -2
-16z"/>
<path d="M1236 7382 c-3 -5 1 -9 9 -9 8 0 12 4 9 9 -3 4 -7 8 -9 8 -2 0 -6 -4
-9 -8z"/>
<path d="M13800 7366 c0 -2 8 -10 18 -17 15 -13 16 -12 3 4 -13 16 -21 21 -21
13z"/>
<path d="M1260 7260 c0 -5 5 -10 11 -10 5 0 7 5 4 10 -3 6 -8 10 -11 10 -2 0
-4 -4 -4 -10z"/>
<path d="M1230 7242 c0 -5 7 -9 15 -9 8 0 12 4 9 9 -3 4 -9 8 -15 8 -5 0 -9
-4 -9 -8z"/>
<path d="M13791 7221 c-8 -5 -16 -17 -17 -26 -1 -9 0 -14 3 -11 4 3 13 0 22
-6 9 -7 7 -2 -4 11 -15 19 -16 23 -4 19 9 -4 16 -1 16 8 0 8 -1 14 -1 14 -1 0
-7 -4 -15 -9z"/>
<path d="M13765 7142 c3 -3 -2 -13 -11 -23 -14 -16 -14 -18 6 -29 16 -9 19
-15 10 -25 -8 -10 -8 -15 0 -20 6 -4 9 -13 6 -21 -3 -7 0 -16 7 -20 7 -4 9 -4
5 1 -4 4 -3 16 2 26 7 11 7 20 0 24 -5 3 -7 12 -3 20 3 8 0 15 -6 15 -6 0 -11
9 -11 21 0 21 0 21 18 2 9 -10 14 -14 10 -9 -13 16 -9 38 5 30 6 -4 9 -3 4 1
-4 5 -16 9 -27 10 -11 1 -18 -1 -15 -3z"/>
<path d="M13767 6759 c4 -13 8 -18 11 -10 2 7 -1 18 -6 23 -8 8 -9 4 -5 -13z"/>
<path d="M1290 6742 c0 -4 10 -9 22 -9 18 -2 20 0 8 7 -18 12 -30 13 -30 2z"/>
<path d="M13749 6720 c-2 -11 -5 -25 -9 -37 -1 -5 -2 -12 -1 -17 1 -4 -3 -14
-9 -20 -7 -10 -3 -16 18 -25 23 -10 25 -10 10 2 -19 15 -25 33 -9 22 5 -3 13
0 17 6 4 8 3 9 -4 5 -13 -8 -16 6 -5 18 10 10 11 56 1 56 -4 0 -9 -4 -9 -10z"/>
<path d="M1290 6699 c0 -5 5 -7 10 -4 6 3 10 8 10 11 0 2 -4 4 -10 4 -5 0 -10
-5 -10 -11z"/>
<path d="M1330 6600 c-9 -6 -10 -10 -3 -10 6 0 15 5 18 10 8 12 4 12 -15 0z"/>
<path d="M1331 6514 c0 -11 3 -14 6 -6 3 7 2 16 -1 19 -3 4 -6 -2 -5 -13z"/>
<path d="M1352 6447 c-8 -10 -6 -13 9 -13 20 0 25 11 10 20 -5 3 -13 0 -19 -7z"/>
<path d="M13716 6375 c-11 -8 -15 -15 -9 -15 6 0 16 7 23 15 16 19 11 19 -14
0z"/>
<path d="M13670 6261 c0 -5 7 -12 16 -15 14 -5 15 -4 4 9 -14 17 -20 19 -20 6z"/>
<path d="M1360 6234 c0 -17 27 -37 34 -25 4 5 2 12 -4 16 -5 3 -10 3 -10 -2 0
-4 -5 -1 -10 7 -5 8 -10 10 -10 4z"/>
<path d="M1380 6180 c0 -5 7 -7 15 -4 8 4 15 8 15 10 0 2 -7 4 -15 4 -8 0 -15
-4 -15 -10z"/>
<path d="M13660 6156 c7 -7 13 -7 20 0 6 6 3 10 -10 10 -13 0 -16 -4 -10 -10z"/>
<path d="M13663 6125 c0 -8 4 -12 9 -9 5 3 6 10 3 15 -9 13 -12 11 -12 -6z"/>
<path d="M13613 5805 c0 -8 4 -12 9 -9 5 3 6 10 3 15 -9 13 -12 11 -12 -6z"/>
<path d="M13593 5755 c0 -8 4 -12 9 -9 5 3 6 10 3 15 -9 13 -12 11 -12 -6z"/>
<path d="M1496 5633 c-6 -14 -5 -15 5 -6 7 7 10 15 7 18 -3 3 -9 -2 -12 -12z"/>
<path d="M1523 5613 c-7 -3 -13 -8 -13 -13 0 -10 24 -7 28 4 5 11 -1 14 -15 9z"/>
<path d="M1600 5380 c-10 -7 -11 -10 -2 -10 6 0 12 -4 12 -10 0 -5 -8 -7 -17
-4 -14 4 -15 3 -5 -4 8 -5 14 -13 15 -18 1 -5 8 -8 15 -8 16 2 16 -13 0 -18
-9 -3 -8 -12 5 -32 11 -16 22 -24 30 -19 8 5 7 9 -5 11 -10 2 -18 8 -18 13 0
6 5 7 12 3 7 -5 8 -3 2 7 -5 8 -9 21 -9 29 0 9 -7 14 -20 11 -20 -3 -20 -3 -1
18 22 24 11 47 -14 31z"/>
<path d="M13335 5101 c1 -9 -5 -22 -14 -29 -14 -11 -13 -11 7 -2 13 6 20 16
16 22 -5 7 0 9 14 6 12 -4 20 -3 17 2 -3 4 -13 10 -24 13 -13 3 -18 0 -16 -12z"/>
<path d="M1706 5045 c-11 -8 -15 -15 -9 -15 6 0 16 7 23 15 16 19 11 19 -14 0z"/>
<path d="M13315 5019 c-4 -6 -5 -12 -2 -15 2 -3 7 2 10 11 7 17 1 20 -8 4z"/>
<path d="M13264 4942 c0 -10 6 -19 13 -19 8 0 9 6 2 19 -5 10 -11 18 -12 18
-2 0 -3 -8 -3 -18z"/>
<path d="M1774 4883 c0 -17 4 -29 9 -26 5 3 6 8 3 11 -3 3 0 12 7 20 8 11 8
14 0 9 -6 -4 -13 -1 -16 5 -2 7 -4 -1 -3 -19z"/>
<path d="M13270 4899 c0 -5 5 -7 10 -4 6 3 10 8 10 11 0 2 -4 4 -10 4 -5 0
-10 -5 -10 -11z"/>
<path d="M13215 4759 c-4 -6 -5 -12 -2 -15 2 -3 7 2 10 11 7 17 1 20 -8 4z"/>
<path d="M13125 4650 c1 -8 -3 -21 -9 -29 -9 -12 -8 -12 12 0 12 8 22 19 22
26 0 6 6 13 13 16 6 2 0 4 -14 3 -18 -1 -26 -6 -24 -16z"/>
<path d="M13083 4558 c-17 -21 -44 -78 -37 -78 4 0 0 -7 -7 -17 -13 -15 -12
-15 7 -3 14 9 20 20 16 34 -4 21 -4 21 12 1 11 -14 15 -15 14 -5 -2 8 -6 17
-9 20 -4 3 -3 14 2 25 4 11 8 14 8 8 1 -7 5 -13 10 -13 10 0 9 25 -1 35 -3 3
-10 0 -15 -7z"/>
<path d="M1950 4540 c6 -11 9 -24 6 -29 -3 -4 1 -8 9 -8 12 0 12 5 -1 29 -8
15 -17 28 -20 28 -2 0 0 -9 6 -20z"/>
<path d="M13050 4440 c0 -5 5 -10 11 -10 5 0 7 5 4 10 -3 6 -8 10 -11 10 -2 0
-4 -4 -4 -10z"/>
<path d="M12980 4370 c-8 -26 -7 -41 2 -32 6 6 8 16 5 24 -3 7 -6 11 -7 8z"/>
<path d="M12916 4261 c-4 -5 -2 -12 3 -15 5 -4 12 -2 15 3 4 5 2 12 -3 15 -5
4 -12 2 -15 -3z"/>
<path d="M12950 4261 c0 -6 4 -12 8 -15 5 -3 9 1 9 9 0 8 -4 15 -9 15 -4 0 -8
-4 -8 -9z"/>
<path d="M12831 4096 c-9 -11 -9 -16 0 -22 7 -4 9 -3 5 4 -3 5 0 12 6 15 7 2
10 7 7 11 -3 4 -12 0 -18 -8z"/>
<path d="M2276 3992 c-3 -5 1 -9 9 -9 8 0 12 4 9 9 -3 4 -7 8 -9 8 -2 0 -6 -4
-9 -8z"/>
<path d="M12765 3960 c-3 -6 1 -7 9 -4 18 7 21 14 7 14 -6 0 -13 -4 -16 -10z"/>
<path d="M12727 3947 c3 -5 -1 -14 -8 -19 -11 -8 -10 -9 3 -5 9 3 19 1 21 -6
2 -7 4 0 4 14 0 15 -5 26 -13 26 -7 0 -10 -5 -7 -10z"/>
<path d="M12699 3893 c-7 -10 -9 -15 -5 -11 5 4 16 2 25 -5 14 -11 15 -10 1 7
-14 18 -13 19 3 13 11 -4 16 -3 12 3 -9 15 -21 12 -36 -7z"/>
<path d="M2400 3810 c-8 -5 -12 -12 -9 -15 4 -3 12 1 19 10 14 17 11 19 -10 5z"/>
<path d="M2410 3779 c0 -5 5 -7 10 -4 6 3 10 8 10 11 0 2 -4 4 -10 4 -5 0 -10
-5 -10 -11z"/>
<path d="M12610 3722 c0 -4 10 -9 22 -9 18 -2 20 0 8 7 -18 12 -30 13 -30 2z"/>
<path d="M12527 3629 c7 -7 15 -10 18 -7 3 3 -2 9 -12 12 -14 6 -15 5 -6 -5z"/>
<path d="M12530 3581 c0 -6 4 -13 10 -16 6 -3 7 1 4 9 -7 18 -14 21 -14 7z"/>
<path d="M2576 3552 c-3 -5 1 -9 9 -9 8 0 12 4 9 9 -3 4 -7 8 -9 8 -2 0 -6 -4
-9 -8z"/>
<path d="M2596 3515 c4 -8 8 -15 10 -15 2 0 4 7 4 15 0 8 -4 15 -10 15 -5 0
-7 -7 -4 -15z"/>
<path d="M12440 3479 c0 -5 5 -7 10 -4 6 3 10 8 10 11 0 2 -4 4 -10 4 -5 0
-10 -5 -10 -11z"/>
<path d="M12410 3455 c-11 -13 -10 -14 4 -9 9 3 16 10 16 15 0 13 -6 11 -20
-6z"/>
<path d="M12390 3421 c0 -6 4 -12 8 -15 5 -3 9 1 9 9 0 8 -4 15 -9 15 -4 0 -8
-4 -8 -9z"/>
<path d="M12377 3383 c-10 -9 -9 -33 1 -33 4 0 8 9 8 20 0 23 0 22 -9 13z"/>
<path d="M2739 3303 c-13 -16 -12 -17 4 -4 9 7 17 15 17 17 0 8 -8 3 -21 -13z"/>
<path d="M12264 3289 c-4 -7 -3 -9 4 -5 5 3 13 0 15 -6 4 -9 6 -10 6 -1 1 17
-16 25 -25 12z"/>
<path d="M12270 3241 c0 -6 4 -12 8 -15 5 -3 9 1 9 9 0 8 -4 15 -9 15 -4 0 -8
-4 -8 -9z"/>
<path d="M12184 3184 c1 -8 4 -15 7 -16 2 -2 3 -1 2 1 -2 2 2 9 7 16 7 8 5 12
-4 12 -8 0 -13 -6 -12 -13z"/>
<path d="M12216 3182 c-3 -5 1 -9 9 -9 8 0 12 4 9 9 -3 4 -7 8 -9 8 -2 0 -6
-4 -9 -8z"/>
<path d="M12074 3055 c-21 -16 -8 -20 16 -5 9 6 20 5 30 -3 13 -11 13 -10 1 6
-16 21 -22 21 -47 2z"/>
<path d="M3023 3005 c0 -8 6 -15 14 -15 11 0 11 -5 3 -22 -10 -21 -10 -21 3
-6 8 10 18 14 23 10 5 -4 -2 5 -15 21 -29 32 -28 31 -28 12z"/>
<path d="M12025 2969 c-4 -6 -4 -13 -1 -16 3 -4 6 -1 6 6 0 7 5 9 12 5 7 -4 8
-3 4 4 -9 15 -13 15 -21 1z"/>
<path d="M11911 2876 c2 -2 15 -9 29 -15 24 -11 24 -11 6 3 -16 13 -49 24 -35
12z"/>
<path d="M3182 2840 c7 -14 11 -30 10 -37 -1 -6 1 -14 6 -17 15 -9 7 31 -11
55 l-18 24 13 -25z"/>
<path d="M3301 2714 c0 -11 3 -14 6 -6 3 7 2 16 -1 19 -3 4 -6 -2 -5 -13z"/>
<path d="M11620 2560 c-6 -11 -8 -20 -6 -20 3 0 10 9 16 20 6 11 8 20 6 20 -3
0 -10 -9 -16 -20z"/>
<path d="M11530 2500 c0 -5 5 -10 11 -10 5 0 7 5 4 10 -3 6 -8 10 -11 10 -2 0
-4 -4 -4 -10z"/>
<path d="M3560 2479 c-12 -8 -10 -9 8 -4 17 5 22 2 22 -12 0 -15 2 -16 10 -3
6 9 5 17 -3 22 -16 10 -19 10 -37 -3z"/>
<path d="M3676 2402 c-3 -5 1 -9 9 -9 8 0 12 4 9 9 -3 4 -7 8 -9 8 -2 0 -6 -4
-9 -8z"/>
<path d="M11346 2361 c-19 -21 -9 -35 14 -20 12 7 12 9 1 9 -11 0 -11 3 -1 15
18 22 6 18 -14 -4z"/>
<path d="M11250 2251 c0 -6 4 -13 10 -16 6 -3 7 1 4 9 -7 18 -14 21 -14 7z"/>
<path d="M11163 2227 c-3 -6 -2 -8 3 -5 12 8 35 -17 26 -28 -4 -4 -1 -4 6 0 9
6 10 11 3 20 -6 7 -9 15 -6 18 3 2 -2 5 -10 5 -9 0 -19 -5 -22 -10z"/>
<path d="M3987 2153 c-4 -3 -7 -11 -7 -17 0 -6 4 -5 9 3 8 12 12 12 25 2 9 -7
14 -16 12 -20 -3 -4 4 -7 15 -7 16 0 15 3 -9 23 -29 24 -35 26 -45 16z"/>
<path d="M11030 2079 c0 -5 5 -7 10 -4 6 3 10 8 10 11 0 2 -4 4 -10 4 -5 0
-10 -5 -10 -11z"/>
<path d="M10951 2053 c7 -12 15 -20 18 -17 3 2 -3 12 -13 22 -17 16 -18 16 -5
-5z"/>
<path d="M4175 2019 c-4 -6 -5 -12 -2 -15 2 -3 7 2 10 11 7 17 1 20 -8 4z"/>
<path d="M10795 1940 c-3 -6 1 -7 9 -4 18 7 21 14 7 14 -6 0 -13 -4 -16 -10z"/>
<path d="M4353 1913 c-7 -2 -13 -9 -13 -15 0 -7 4 -7 13 0 14 11 41 -10 29
-24 -4 -4 -1 -4 5 0 10 5 10 11 0 26 -12 21 -14 22 -34 13z"/>
<path d="M10590 1820 c0 -5 5 -10 11 -10 5 0 7 5 4 10 -3 6 -8 10 -11 10 -2 0
-4 -4 -4 -10z"/>
<path d="M4610 1770 c0 -5 5 -10 11 -10 5 0 7 5 4 10 -3 6 -8 10 -11 10 -2 0
-4 -4 -4 -10z"/>
<path d="M10473 1748 c-2 -18 0 -20 7 -8 12 18 13 30 2 30 -4 0 -9 -10 -9 -22z"/>
<path d="M4815 1669 c-4 -6 -5 -12 -2 -15 2 -3 7 2 10 11 7 17 1 20 -8 4z"/>
<path d="M10120 1585 c-7 -9 -19 -14 -26 -11 -8 3 -11 0 -7 -10 3 -7 0 -14 -6
-14 -6 0 -11 -5 -11 -12 0 -6 10 -2 23 10 26 24 43 29 31 10 -5 -9 -2 -9 9 1
19 15 23 26 5 15 -8 -5 -9 -2 -5 9 8 21 3 22 -13 2z"/>
<path d="M9920 1480 c-8 -5 -10 -10 -5 -10 6 0 17 5 25 10 8 5 11 10 5 10 -5
0 -17 -5 -25 -10z"/>
<path d="M9390 1301 c0 -6 4 -13 10 -16 6 -3 7 1 4 9 -7 18 -14 21 -14 7z"/>
<path d="M5667 1268 c-3 -9 8 -14 34 -15 22 -1 39 2 39 6 0 5 -11 7 -25 6 -14
-2 -25 1 -25 6 0 13 -17 11 -23 -3z"/>
<path d="M9201 1227 c-13 -21 -12 -21 5 -5 10 10 16 20 13 22 -3 3 -11 -5 -18
-17z"/>
<path d="M6230 1133 c0 -15 2 -16 10 -3 9 14 15 7 11 -14 -1 -5 6 -3 15 5 16
12 17 12 11 -3 -3 -10 -2 -20 2 -22 5 -3 8 5 7 17 0 12 -6 22 -13 22 -6 0 -15
3 -19 8 -13 12 -24 8 -24 -10z"/>
<path d="M8861 1141 c-9 -6 -8 -11 4 -21 13 -11 15 -10 9 3 -4 13 -1 15 16 12
13 -2 20 -1 16 2 -10 10 -32 12 -45 4z"/>
<path d="M8456 1062 c-3 -5 -1 -14 5 -22 7 -12 9 -12 9 -1 0 11 3 11 15 1 13
-11 14 -10 9 3 -6 18 -31 30 -38 19z"/>
<path d="M8405 1050 c-4 -6 -11 -7 -17 -4 -7 4 -8 2 -4 -4 7 -12 36 -5 36 9 0
12 -7 11 -15 -1z"/>
<path d="M6798 1028 c10 -13 10 -17 0 -20 -8 -3 -6 -7 6 -11 9 -4 15 -3 12 2
-3 5 1 11 8 14 8 3 17 2 20 -4 2 -5 3 -4 2 3 -2 7 -9 12 -16 10 -7 -1 -20 3
-29 10 -14 11 -14 11 -3 -4z"/>
<path d="M7246 1012 c-2 -4 -1 -14 3 -21 6 -9 10 -7 14 8 5 20 -7 29 -17 13z"/>
<path d="M8040 1016 c0 -2 8 -10 18 -17 15 -13 16 -12 3 4 -13 16 -21 21 -21
13z"/>
<path d="M7120 998 c0 -4 4 -8 9 -8 6 0 12 4 15 8 3 5 -1 9 -9 9 -8 0 -15 -4
-15 -9z"/>
<path d="M7156 993 c-6 -14 -5 -15 5 -6 7 7 10 15 7 18 -3 3 -9 -2 -12 -12z"/>
<path d="M7210 1006 c0 -2 7 -9 15 -16 13 -11 14 -10 9 4 -5 14 -24 23 -24 12z"/>
<path d="M7903 994 c0 -7 6 -10 14 -7 7 3 13 8 13 12 0 4 -6 8 -13 8 -8 0 -14
-6 -14 -13z"/>
</g>
</svg>
